<mxfile host="65bd71144e">
    <diagram name="Page-1" id="8378b5f6-a2b2-b727-a746-972ab9d02e00">
        <mxGraphModel dx="1382" dy="757" grid="1" gridSize="10" guides="1" tooltips="1" connect="0" arrows="1" fold="1" page="1" pageScale="1.5" pageWidth="1169" pageHeight="827" background="none" math="0" shadow="0">
            <root>
                <mxCell id="0"/>
                <mxCell id="1" parent="0"/>
                <mxCell id="65" style="edgeStyle=none;html=1;" edge="1" parent="1">
                    <mxGeometry relative="1" as="geometry">
                        <mxPoint x="70" y="560" as="targetPoint"/>
                        <mxPoint x="820" y="260" as="sourcePoint"/>
                        <Array as="points">
                            <mxPoint x="820" y="400"/>
                            <mxPoint x="40" y="400"/>
                            <mxPoint x="40" y="560"/>
                        </Array>
                    </mxGeometry>
                </mxCell>
                <mxCell id="67" style="edgeStyle=none;html=1;entryX=-0.007;entryY=0.283;entryDx=0;entryDy=0;entryPerimeter=0;" edge="1" parent="1" target="62">
                    <mxGeometry relative="1" as="geometry">
                        <mxPoint x="720" y="550" as="targetPoint"/>
                        <mxPoint x="820" y="260" as="sourcePoint"/>
                        <Array as="points">
                            <mxPoint x="820" y="400"/>
                            <mxPoint x="720" y="400"/>
                            <mxPoint x="720" y="556"/>
                        </Array>
                    </mxGeometry>
                </mxCell>
                <mxCell id="68" style="edgeStyle=none;html=1;entryX=0.002;entryY=0.313;entryDx=0;entryDy=0;entryPerimeter=0;" edge="1" parent="1" target="63">
                    <mxGeometry relative="1" as="geometry">
                        <mxPoint x="820" y="400" as="sourcePoint"/>
                        <Array as="points">
                            <mxPoint x="1400" y="400"/>
                            <mxPoint x="1400" y="543"/>
                        </Array>
                    </mxGeometry>
                </mxCell>
                <mxCell id="60" value="" style="shape=image;verticalLabelPosition=bottom;labelBackgroundColor=#ffffff;verticalAlign=top;aspect=fixed;imageAspect=0;image=data:image/png,iVBORw0KGgoAAAANSUhEUgAAAlIAAAC3CAIAAABWqyc8AAAAAXNSR0IArs4c6QAAAARnQU1BAACxjwv8YQUAAAAJcEhZcwAADsMAAA7DAcdvqGQAABzaSURBVHhe7Z2/Wts8G4fDdyxJh5YjCEdAunRiZUtGsnRj7NYFRrKVsVOvi6vkCMgR0A4vzJwF9NOj/3JkJ4GEONF9D2DLsiw9j6yfJDvWwdPTU8dxc3MzHA7tzr7z58+fT58+2R3YDBi5PeCLNoAXtog3/v/MPgAAQAkgewAAUBDIHgAAFASyBwAABYHsAQBAQSB7AABQEMgeAAAUBLIHAAAFgewBAEBBIHsAAFAQyB4AABQEsgcAAAWB7AEAQEEge1vn8XF6eTkajY6Ojg4ODo4uH204AACsH2SvwuOliI/wDgL0OB0dHfR6g/F4MpnMZjMbDAAAmwLZS3n8/dOJz+zn783q3uPl6WCirtbvDy9uFQ+Kf3dnXXsYAADWD7KXMP0+Fh26uOirnQ3rnrvWw93d1dmxoquwxwAAYDMgezHTXxP1t3/y+fNJRvcepyM7/2k5OrqcqgjVYM1oas+5HLlZU3XCSJ+gcdf68OAjqMP6qLuQTUOwc69u4lVmR8NZNk1zVnZutnI6AECxIHsRXvW63azu/XdvNyyz2Xhw2qAkSmx6g7HMY1pmk/GgZ8Ts0SSmUtATnRp1WB/t9j7K1TuTX0737NyrZM0mO/FPAmeTwfegjwAA0ASyFwiqp5Qnq3ua4e0/4UFPhHYOP3SPr3TA7TA+fHVsZzEl5EFCHm7NGZNviVL2L/Th5Gj37Fwn5nQvUb25ZIf6RAAAWAJkzxOrXpPuTQYyX3jQU+LTv3hQ8laDSU/F+XpsUjy2Yjb7+9DpPPzV2tW/+HGmD3ePzQXN0c7xl0j30rGeGSZGyV7dxZmYjXs6f4ojP/8JAAAGZM9hVcqrhsia7De916IiL3xcpoaDdivBzmNGdD8c2i3B6Z4a/CWq5/SyJtmE2WwyWJxBAICSQPYsVvXmmY0rT87cJKeZ1GyUReH+P3/cDtRizNhO44ZxH3t61+qeSv+3Fjo3DLV6GSWbokagOn9uFnZhBgEASgLZM1jVs5JmsU/rwpslK2H1SWRT686jfyj35dhPovonfe6oUzele1/NzyjG43jy1Q0Ko2Qv3RugAACwCGRPeLz8ZlRPBClgB1wV3XPP9gb6lCBTVdx7KeoEPW/qTrj4qi/iDttZVXO0PzwPP1d3yihEl7FyGJIdz+JBZHWWNk4RAKB4kD3BPi+rqN6c7iUP35QU9Ye3D01fVTm++vdwEb1nWTnh+ErewgzKJgeTN2SC7iXi2j27i5KVRH+YNCuPC/XXXxreuQEAKJCDp6cnu9np3NzcDIemod9//vz58+nTJ7vTVqajAxkFyqdcdnLMthNGLgR80Qbwwhbxxme012Lc3Gv9RCoAAKwGstde3GexeToHALA2kL320j270y+U8nQOAGBtIHsAAFAQB9fX1y8vL8/Pz+qv4ujoyB4BAADYO3iTEzYIRm4P+KIN4IUtwpucAABQIsgeAAAUBLIHAAAFgewBAEBBIHsAAFAQyB4AABQEsgcAAAWB7AEAQEEgewAAUBDIHgAAFASyBwAABYHsAQBAQSB7AABQEMgeAAAUBLIHAAAFgewBAEBBIHsAAFAQyB4AABTEwfX19cvLy/Pzs/qrGI1G9ggAAMAecX9/r/4ePD09mX3Fzc3NcDi0O/vOwcHBv3//7A5sBozcHvBFG8ALW8Qbn0lOAAAoCGQPAAAKAtkDAICCQPYAAKAgkD0AACgIZA8AAAoC2QMAgIJA9gAAoCCQPQAAKAhkDwAACgLZAwCAgkD2AACgIJA9AAAoCGQPAAAKAtkDAICCQPYAAKAgkD0AACgIZA8AAAoC2QMAgIJA9gAAoCCQPQAAKAhkDwAACgLZAwCAgkD2AACgIOpkbzo6UIymdtfzeHmkwo8uH+3+pjHX08xnBpYFMwIAGFo82tPK2xvP7O4GMRovJJoQtGKXpeL9zNjMXht5xwi+0GD5raC94EYQxiV44n2ok73jq3+Kq2O7+/48Xn6bdDrDW8mGYdOZ6ff7ncm3MI59/P1zpgN3mfc3YzN7aeTdpH/xoKrDw4VyyOD9pm8gy/SXuk07wy9bvTnLoU72TCfcdT587/Do+18TUiHqPto7KJpWEySlSpCPGvc93f1nmsOLj79suMmKScHfo1F3KUrbZno+Sws4PDnpd2Y/f7vEv6sR0vDkxOwZMmlK0NHl1F/eXj2yX5Lp5lzNH63YbAfM2MymjGzOijbNqdkTs8UfjXzJDeso7Q7Q/XCo/s7+PphdYw1LYoJKtbPHYhcEw1biVmIb4sQr8SMv2ZT3ncf/7tXfoHo5L3jrzu34fY8+UInjbovIsC5GuEEs9qRsZZDAzM24WzxFXF3pMZ4gnUA3Srgdqk3TN9Sbbseh4tqA6Cy9GTqUYcRhkvDjj3jXRNQnJRcK4VGMOF9hS7bVhopnd9OLR6hQu+XzoOPGidsgc3o+zTijJjzalChpYCYFR/ao3jTB6Tkuz2Yv2TUR9Ulx7qLwKIaNE2L7ULWh4tnd9OJLo86xWz6HOqX40uswsk/Kb5pU8idGSSSxXfyVi7kTqILZrbjMsQ2T4idGUuhj+lBsseh0sxmdUjHm/JX8IZ/iXHI+yr6gymS3IjvGFk3tZqygD0WblR1FsGeUVhLJhwfDVhKJr1vZjWOacLNTzUbLUXk1G0s829Pj7/7J567aPv6qy5nSPbu7O5Ojtut4/5/rg0T0P/bsVoJJ/OKr7uZ0P6uhQDQW6F/80OnacNUj7Z6dK6ObGCFfcQ47x1cqM0tlaQ59nSjxdM6hIU2b0ZDPgB5vdYbn+nhjrvbGjM1swsjNzJ2YL35pzMY91VfXT32tD5pqkR6P1NQ+4fHytPn5sb0RrLePvygPTH7FA4XDD+X5wHphMFHKYet9oxfqyHtnQT2Pm6Z5mrPx6puxHSyWPTP+bsYPhgfKVBHhzqppWCqJm6auDt0E6vtF7G88LcmaRCp3TV2WGtFeVIlPzROxpEFWLJlmaKonAym86jC5B2rNKeyLGZtZt5FXpK74xWH76NJhV/V0NG2uRQ9/VRNZq0z/iej1Ly6UVevQCciV5r1rnJCVVB9/X6c77aCpo25xU8JGL7i2oPqOWp136uv5XNNUYUE2Ul59M26LxbLXXGDF4+WRqsNmMGwHwA57Z6nQ2fjUz0NHVBI3thb39T7O9yKMW40nx6en8tQq8mNs+oYsNWOa5PFAFMZ2dBzLpxmqn8S+Haoa5ubaG1LYJzM2s2Yjr0hz8cvDdNjF77W1SGH6/nWDvclYRO/H2Qe7X4utyQ7T5JoH0HknhKowGeyp8CmMD8yrXk1eUESdlUC9d2rruRg2NE3zLMhGyqtvxm2xxCSnaTrN+Fa/gpDD2FybfyV8d0R2onkQWxHMLIi+qm8hzUTrbOb9aOK6RKajo0vdzL8qS7YRUGdnb8OaNK0aGetUxi9JCRflal/M2Mz6jdxI9sS54heLHiloI9TVIuuMJkO5ifR6bAP8fU67mlSvFOy9p61T74U6mrzTVM8rTVNKczZefTO2BPs2i+Yq/0pL1PHuX9zKgUqnLfTLh0O1qY+m3RGfkosc9tOYUXiUbOWC9ow4MCRiQnNZSlGH7FaaJZOSO8HsmUPZNHVgfzh0l09Sic+T7eZc5Y6Gcmls6oqQqCWJGYVHyVYuaM+IA0MiUek0dWZsRp1ot9IMm+u45MyeOZS9og6sM3KexhM1meKnmdwzVMHsVmRkQyhwYlITXG9lddwcdDY05nYGnTdm5br+fB8n2q1cNnHTDqOKYrcarJWU3RknMbXfqZgpIj0vXMjsm6OJi+b8laTtw0228/dUy1G5tRtW8TSR7LWbtMK8Dm+Ct7GOrGyLzed920ZuPHGXXfcKXusL3fhVzaRtt0MNXmt4rRfqWMI7a67nO3zbeOMvMcnZPsz8185NKLeNws1ILYISoJ7Ps4OyZz48sosTyq2icDNSi6AEqOc5Dp6enuxmp3Nzc6MfqBTBwcGBGfbC5sDI7QFftAG8sEW88Q+ur69fXl6en5/VX8VoNDIxAAAA9on7e/klBqM92CAYuT3gizaAF7aIN/5OvtICAADwOpA9AAAoCGQPAAAKAtkDAICCQPYAAHabx7BQ7P5+sXt9NMmeMWXNF7oTlo/ZTqajauZl+RvqzzqxN2bVqGadIWv96ObV1HhAogV/pXurs0zG9oyqnfe0mG3Hr7GleH1jo53ZGx+6b5HVrCQEEXWyJx457ZzH3yKtYfmYO4OqSAP5tAGsmX6/b1ZX8Ux/TSq/mYk/9LjMHSwfga9bKnNplsnYnpF8VdEtcQrvx+Plt46t6w8X/Vevq6Tqv1Y81G4F6mTv+EruBVkAZhHLx9wRZJ3oTvjAuO5NuSqpNN51jKMeszuqgtRR34ezMWU/VGk5zR7IpLDnHJ6fD+OFTuTLScMvX+xeFrFe01hEvjgYvryUd4oNabDyEhmL0okT2isnSmGqpYiqfFrY2CAaiaYC1b/qLSD4MIUNji9Xc5mQneRyUbo7S/fszkmVXncoWukyYytF1iyq/vc/dvyRxIaJ7TI2NxcKe+XAs70K01Fv3Ln48fWj3Y+RxtCuWjUdnXZ++J5aGCjMxr1vH3U3Wq+YLFVKFq6yK96pJH7/nJkkzIVMj/u2kw419hdljCAvYoy3fSxQe8QvVZtzyvT7zxPrj+qALqE5Y6qxCNNIDxf3ejVyRVFOrBT29+c7vaWGxGaEboeMmVtA7De4d6cOqwsfWz+aO6vO1LIsoJ0JkHSzyy3vKpUZC1nT1RRVr3agqTGLRJ2Nv/lq7wweI/34md0GDbKXMB0NJsPbmimfuHIeX7lI0lOLbmN/dvfsfGh6cJHu6fZUJ6FHKa6mh9T2HpEXu9aosmensrr6PGYyYd44qnFVndue0rRwNOeUxLRNn6Fvyph2263vm3vP7rITjQEN8eBpMsgECksXNnMLLCC6s+pMXWUfVhTwgzrpEkSTlErhzVLLgSazhCV+c+YS0Tss5ttbS4LsBaRLqkQvqn8e3RYMOrdhBl1FNlX2oNfQlbJN71c10hDdS0cR1apdBr4TINMz+RWhl8E8mno4+dmLZmmyTrGB0lcW74U4lemdhozpBcgjeh99T2dnnRie7aVjhGhENTdweE1htaG6Z3faVUL62Lx6ZzWY2kuyDDoXdZd2AenSGWMn1VhGcFVVbzRLShIuI3RV79PnCL5nU/FFOSB7jr/fT2UKJyd6ti14+PjNdYFNbbJ1tuFtHttOyOBDtaip6qX1sxxsJ+Btqmfpnv0Ic5c1TlFNrg667eiJIberqPi6PmOqkbFbhqg7vgdOrD5Z0mQDX1NYayg9oNPOCRN3QvXOajC1l+R/t4fzkrzL6FGa7nIpKq2Eoc4s3Q+HsVdEMYO5Or9GlXGkwZmx6otyQPYss8mk4ycL8kjldPNgAbmf7aYwGfhnx/5xhWlEJgM1BPH1WY8t3MOg6ag6o7TPGGOogbWbMWtCJoKajCOJNThFje2Wbx9rM2YOuISCZ/fDidLOzvVA5gOXLmzuFpC+RP0ILbqz6ky9d8Q1U4qZ9A+qqldvltQrYbJYmEzuFzRpxfIUcXXlRt1z3YD6ReSXj9kuVFbtlilD6AIJMlqwIdGm3jYF9MXuX1wM7XET0x9JUjTDj0yQsCs2WxlVNrs1Z8ZgC2Uwa4A4jkWsWTWPRIvCgvfqnGKpJG1ZJmNmxxHnJyRfzWXbUFm0W7FNNEnxHTYwNkKusMH6gsSYvwUk1J8RTjCRdWASJWvqcG0hXHHHUHm3W3ExbTl1GUORU+PnzaKILJOaKznV7kh4MJ4kubOmXB1lIbPBwkNrRHXgen/Pa35Bo4YtycPBItiAkeGVvIsvGm8B4I7YKt74THK+E9Pk92UAALAdlpe9+CeUgZKeSb0FVA8AoBUwyQkbBCO3B3zRBvDCFvHGP7i+vn55eXl+flZ/FaPRyMQAAADYJ+7v79VfRnuwQTBye8AXbQAvbBFvfF5pAQCAgkD2AACgIJA9AAAoCGQPAAAKAtkDgHUj61yYL0iGLYCW0CR7UmGX+EG6iWbY4fpd+Tk+v8NfM3E1UUSf4U3CF1Qh46U0Tl3Kb0HSDFUg3Vua6hceXM5shqsZNdHfreJttMLLx6XN+jb7skrQ+lmt5sMaqZM9uSdOO+fJ51+zPF6e2uWr5Sun4SPhu4j7dGv0bVdYJ5GBk5oSfw238XOO8iH/4dAsXphQl/JaqHzYfln0KjDua8DVOtXvVxd7V2V7758PbbLC+8XksqsEg2Hpmg/rpE72zKLWfuGmerpnd65ay+IY+aWQd4Dc2o6aqE/mmtNMEKzCgpoifa7s4ENU7+Tr15OM7lkqKccdau8qCXQ76lILhznph+WWrw+yNGjtIuCH5+fD2c/f/tKylszwS7oc6EapqfCxcfSOMU/YSrf1jiNr4TQ6NBOZM65KycjcHoiN7KtxneWTcJ1cnHxxrPXZXuN93nIk7xmmo9POD90Xk3GE6Z5Pv9vxbQiClciu8LYYrXqfu3rtsRq7xymrWz1ed/ZerzKbsMxybjqOn6ZboT5Ulvyc4/hLpHvZtUU3Sk2Fj3i8PPVLScp6vp3xqSqchLqVKRdbOEkEFpCrXQ4zMlfhdj8iX42xfD1rlL20fdgx6tqo46t4LGvWMQ5hil2V+a0wG/d0f7U3blQ9M9VQPRxubu2KaKSkyKSsleTWzRzpBawrA8wFk5cmzZ7StJCZFerDwk6g6J5dIFfl5J2fgC0SZd1qHkaTrmYp2NOjIHpLWLiaCDSSq11C7VSUJluNsXwTa5O96UieXe/sWr6qjco3xDI7YFAtqg1zgdLTZUJ+BfyTrn+3h+PeajNf8ThuXvcyKVeHM72PUUOiX7cI6x8GL0fjFdu/PvnZiwKXrg/SVC0Yv+mVsWW61g5jbfC7UFvhDXI7q8Ikk67HV7fD2SxqYRstrMglAk1ka5dxVraLUqnGnqzlzStGwmBig0plPbI3HR0M7i+iTvGuIY9vct0pU31MexrNL3TP7nTQbSczrQNLIC1+0kQuQlTPj+l0o1AZ7zl8yqoRtkGGpO3QrxI8fPxmn304hyqq/Zju2Y8w4bR8fdAq3TSaEo6/qqR/TbegenUV3vBrJLdz1RJTCb0YhleGGi1ckwjUU1O7GnpFlWpsqbF8eH0mXte9SN4ue9JB2W3NU0X4tng1PJlK0BuqwEjdW5Fmt1YV5Il7ZSgo1g8jOoVqFtwMYYpPWYaEoYnOPf8w83a5RBL02HIuWnN9yE48zWPyOJi84j3Rt7Cgwk8m9/PzNkr0JJtnotTWqo0WziYCS+Jrl7FrY/2oVmMsv5iniKsr/9JxtT+QNDkx8x2H+J3cFqNyqv/rAqTFk56WC/Hl66uOri1b1BPbkcJuC2Uhu5V0XwVnOQmvWFFsnnpEQqqm9mF1KSu89+IE4yvKdq5uV8LD9X2K9fUhuug8EqGaAb8jp+ZysxbUxfV/nb30KlFp04L7/MhJcZZ9lKiw4bSaRGDujvCeN3hrutolcTKIPePTvcHrLJ9eK/ZmSSjLmQ0WHoINUqSR1WD128fs7Ic68uvLtn6fRYVvAyt64fHy6LTzI61LuTBYBm/8tf6AAQAAoN0sL3vywGWe1d7GAwCAZYm+BuLJhcFKMMkJGwQjtwd80Qbwwhbxxj+4vr5+eXl5fn5WfxWj0cjEAAAA2Cfu7+/VX0Z7sEEwcnvAF20AL2wRb3xeaQEAgIJA9gAAoCCQPQAAKAhkDwAACgLZAwCAVZAvMZuPsYatHaJJ9qRAS/wg3UTT7FzxDVEJNDtajHZTMbK38WrGNx9N2LCDJEuh2qd7S1AtkdCuzzo0FVD2uAHejbiytKuSNCKfvzYLGcl6czu3yGqd7Enzcto5z38INcGvLf3vNlqTZOeIv8zKYikbwn0k9yF8xV+ztPFlCZbhUBbrsQGbZ8m1FCqEzwGbzwADzKNaWVnF2NWTk5+yfP2OIGtBG3bwkzF1smcWuF6wXJgmrAgsy29VVlfeXaJemGufM0HwKmTFmoaqIn2ubM9XLzz29etJqntxhzk+Lw73DpNAt6Ous7CDLesYhSV63l4rstFXTON9EC+kWTTGMpkNhpN4Ucz5soRTq8kkJ9koSXglE/uFXsrpNoiG++iYWMAT7JyEpzYxLjCEEzLxE+OG6t9g8+xFk/iyE+VyJ1jjsz29JNo7r5a5Kaaj084P3ZWRgYlZY9QPa0MQvI54pfQV0Kr3uauXeYscIIt82/Hiw0VnbHrM6maM1+y8n18POLcCXxUdx8/hvL1W5FJQgTJRZPr8t53W1Cy/9rsQeUwWk+2Hxe3FKX3fickVUBbqNW55vDxVJZ1bC06C03XaS6B2+f2V67NOSR8Ky0Atrv9LsEQiu+m7dcie7WukXZfdJgxh9RqjehnwEKaoX5ka6nGro/eaO0hmqqF6OMiU9kl+bXWFdo0008NbN2EqTyKqo8sFk5cmqzIFFXLy9lqRS0GPJ11GkuS2TKR72pwmj9LGHp6fD60DdFfk5FAiCbkCGvvPxqdHtaJ3WMzHoQKibsuwuD6nq9prFtf/JVicyK76bh2y52Z5ZXH71/Qp2oiM3A2qibZhLlA6QI1PoKCGaAHMw3FvtZkRuQedVs7rnnm8Hp6vV9uU3kffBtvIg86tfY4YfB3VXpPVh5Ofvbhb/eZakU2hfp357XIsK6mL7un2LxmYKEnUDjAD8M/BuvkCqjbidjibZfoZMtRVhvtidw3Wm4rBxAYVxir1WXdEKh2umvjdD4dhBJ+SsXnjTaTI+m4nWOMkp26MXtGnaCHGn6aBfggvJHTP7nTQbedVUwYQkJFEcgstQlpeP1rUTWqie+6lGJFTcY08Z45JOsQ6snTSjPA6tyqqutU9+5FORr6tVtSksJol3hG5o1UrmaietaTRvctfE1EyaU31jV9XQHVgcH9xMffO2y8JfpjrLThvKqPu7ygwmUSuskJ9nu+TKOri656MFbi0S5GxeeNNVOe7neDNsqd6d64m65Zp32b/ZC5Mb0QFhTcjM3vRLZQis+aVoaB+cBy9HSmN6mz8vdYhusH2bWzuMZ6ZeKtPwaIHlnPR3l4rfAqm+XNP9KajVr0dYMyoOhm+XfVDC9G98XiSfTolhAJKqQYij2e6zY3sNZncz096FoORoOBvVZdqnV9fn8XO806ojR/18RZ2KRpvot323VPE1ZV/KbVqkqTJSYg7dfWx2ofKrt3SRQidHY0vf1/1Ue3BqKSV2FCDMpXdSjv/CmfCGuOnVUlCqjb3YWnKIVpUh0Nq8eVkO1dlK+Hh4j7FxlpRTTbez6UQp5HLzppQqdutOM9ZXL4UJmoIUAWIyxIV2WxmChjFi2wRtoSQbEhKiM/dC5Rl7JbGmNcSWSCQ2sISxwxGjM1odhxxHM9SNs8mIvGT62TTbx+qEGaDhYdgg2Dk9vBKX6ihd3gMCm+FO2KLeOOv89keAOwZ+j3TuolMgJ1kedmzP1Oo0KonEQCwVlA92EOY5IQNgpHbA75oA3hhi3jjH1xfX7+8vDw/P6u/itFoZGIAAADsE/f39+pvuaO9P3/+fPr0ye7AZsDI7QFftAG8sEW88XmlBQAACgLZAwCAgkD2AACgIJA9AAAoCGQPAAAKAtkDAICCQPYAAKAgkD0AACgIZA8AAAoC2QMAgIJA9gAAoCCQPQAAKAhkDwAACgLZAwCAgkD2AACgIJA9AAAoCGQPAAAKAtkDAICCOLi+vn55eXl+flZ/FUdHR/YIAADA3nHw9PRkNzudm5ub4XBod/adP3/+fPr0ye7AZsDI7QFftAG8sEW88ZnkBACAgkD2AACgIJA9AAAoCGQPAAAKAtkDAICCQPYAAKAgkD0AACgIZA8AAAoC2QMAgGLodP4P5nO8SifNdw8AAAAASUVORK5CYII=;" vertex="1" parent="1">
                    <mxGeometry x="780" y="70" width="594" height="183" as="geometry"/>
                </mxCell>
                <mxCell id="61" value="" style="shape=image;verticalLabelPosition=bottom;labelBackgroundColor=#ffffff;verticalAlign=top;aspect=fixed;imageAspect=0;image=data:image/png,iVBORw0KGgoAAAANSUhEUgAAAg8AAAESCAIAAAD156EtAAAAAXNSR0IArs4c6QAAAARnQU1BAACxjwv8YQUAAAAJcEhZcwAADsMAAA7DAcdvqGQAACJ+SURBVHhe7d0xdtu41sBx+1uLPUWSFdgrsKdJldadXMbNdCnTpbHL+Lwmbao0Y69gvAJnirH3kg8XAIELEiBI2RKh6P87572hKBIkLyRcknJ4D//3v/+dn58fYOvu7u6I/FIIfgvohWXNjf/h169f/SQAAAWHj4+Pb9++9a+wRT9//iTySyH4LaAXljU3/v/n/wsAQBnZAgBQR7YAANSRLQAAdWQLAEAd2QIAUEe2AADUkS0AAHVkCwBAHdkCAFBHtgAA1JEtAAB1ZAsAQB3ZAgBQR7bAa3l+vr+5uby8PD09PTw8PL159vMB/A7IFq15vpGxVuzQePt8f3l6eHx8fnV1e3v78PDgZwP4fZAtGvP89/durH34/vdupIvnm4vzW7PXJyer6zvjyfj1z8cj/zaA3wHZoi33X65k2L2+PjEvdiRddPv89M8/Xz+eGUeGfw/A74Js0ZT7H7fm/08+/Pnnh0y6eL6/9DepvNPTm3uzQH+2dXnv17m57G5tmRUu7QpeWO/ULyzinbCuCavcTrfPfzyFBczbYSt+I8Mt6BttwyPo3p20OoDNI1u0JCSLo6Nsuvjv0U94Dw9X5xcjo6YZWI/Pr+Qmkfdwe3V+3I28z6G5h9sf3Wis7oQdPP7nmx5rx7di9sTejbLM22ErffeXx3Ipsq4Xrg5gXWSLhsRkcXCQTxfW6u6XeLJ3qw7e/XF09tXOuFvpt7+e+VtEMudJ5jzduTVuP7sE8/SvvHuyWpm5Xbpwq6xWtqmHf5/UzGI73sm1fbvwrmPSzrkcY4/POCfXpgF/WFmF1QFsAdmiHTpZjKWL23N7c0bOsc34arJCgWvPLPPXmWvx7OOnJAs4b968M//v0oVbZfX+/Rs1ZI+343KOeffbR/v20Znb8d5WRPG6wLdhEp99WcBlBbAkskUz/KD8cHVsk4HNBvJ67Kdus3D1/n1pDPYn9O/++Phexn5JF12yODuWd9StKFFo51gnFuvoD0k/A/66wFyg9K8eukuLN36zWeXVAWwD2aIVPlkMPVx9SX8C6O5EuTtPo9lEqCE//lKROPPp4qZLFt2An1wejLejFs0O/rfnNvmt7obXQv6nku6iKmtkdQBbQbZohE8WPhN4/peI+Bv0LP6sX7KNHeefw+8PJh+Eny1kTPfp4qpLFukVw3g7/o5Z+J2iezcz+Ofvm01JFtbobTcAG0a2aMLzzWeXLOxQHbhRvJ8uut8t3A++5VH2yP+8YFawN7e6Fa7/ko2EG1GydrehsAf+4sJeT4y3E972t9DcuyerT/1/nbe6G/6DPflrWHfHbbh8T251ANtDtmiC/5m3lywG6aL3g8DJyeruaWwMPfv66+la/uTJK6/QbSjsgbug8PeXKu2cfX26W52Et+2bvauA0euCk1XtqoHLCmBxh4+Pj2/fvvWvsEU/f/4k8ksh+C2gF5Y1N/5cWwAA6sgWAIA6sgUAoI5sAQCok1+5/SQAAAX8TdRi+IOQBRH8FtALy+JvogAAr49sAQCoI1sAAOrIFgCAOrIFAKCObAEAqCNbAADqyBYAgDqyBQCgjmwBAKgjWwAA6sgWAIA6sgUAoI5sAQCoI1sAAOrIFgCAOrIFAKCObAEAqDv0/wUA7JnHx0c/NYFki1+/frkX2KbDw0MivxSC3wJ6YVlz48+dKABAHdkCAFBHtgAA1JEtAAB1ZAsAQB3ZAgBQR7YAANSRLQAAdWQLAEAd2QIAUEe2AADUkS0AAHVkCwBAHdkCAFBHtgAA1JEtAAB1ZAsAQB3ZAgBQR7YAANSRLQAAdWQLAEAd2QIAUEe2AADUkS0AAHU6W9xfHhqX9/5l8Hxzauaf3jz715vmtmcNdwY7iT4Fdl1j1xY2YR1fPfiX+8LlaZEMpXGI3eURtvU+dVFWEbY7vL2TI4j4FbA4pWiRzhZnX38ZX8/8y+17vvl8e3CwupPdcBbcme07OTk5uP0cR6nnv78/2Jm7bM/7FHOcXD+ZD8jTtfkenJOu26OzRXqSFZL96Zd/3ZwedTbge1bdbhDSUm9WWFSfSnSfCzc6Xr/54ee7XXEthM+OOvFTbfudHu7SLnn34cPJwcP3v7sj/WLOx1cfPrhXTuYAZdbpzX2IhQ+F6swkguMhGr7b68B97FN9vOG49BGkhzO2w7opf3x+3jAualn7pg6vE5rXzRpm8aSlJML93eutW1os2c+kwWS+2m5pftXRH+/M/z/8+2RfdTviG/ItqRlqlqE2oWZf3utlLLOgm9ffw9ySveaSA+ktb5tLWu6ELQxeJOHWjau2JxzCVrhTPpfTu9PAu5WZdKneTnYvOmZZP0OtZSfj+UE8pXRNhBNM/dItaFdKNhTnqyX0fsUpmTYTZjn/Mt14q8wu+qkQELvj+kj9LHcs+QPUUXPz1aQsks7MtNDJvmsn3ex0nW6f3avkpVvQrqT3Ts1XS/hl4tJhrpkwy/mX6cZfzLTlp4Yt671I37Xv2OnkANQLM1neYTOre+3iopqSSdXOMBTJHL2kEd7Kt5W8n7QQdk/tj5FdLFlD7cxgEf9Gab5iZvmpQoNx1W5GfD3cQ9+Km1YNmukwIWv6hfWqXbNhD9Mli1vpXsl6g+bCIo6bmey2e6G3NZjvl68fwhrMqn5qmsLvFvc/bs1+fvjzyEyf/WX3KHX08Z9/Psq7/kzg8b+YbIOTN8d+KuEav/7L3pE4+tOcUKsz6pPrb7ZdP9+cYBx9/GQC5JaI+6X38ODsq9mZSbvUNnvQ6khX7/Vdm5ED9FGLQYvs2f3B6pN9fzRE9OmQj57vh7P3Zq9vf4ycyY3usHmzuw3nvlRpU7qnhqGwi4x594deJh/hifFcL+zPNxfZX6dK84cero7NmbL9jasL+dO/5sXJanXigmVjtLqW4LmPeamDZgWwuofVj0Ea/Hncrg6/O2t8BjYsny2e/3v0U2Xh2uncHJMSe7w70J5e4+7zWGI/p7Z3JIB2Vdusa6TXR6Vd2h1durh3d/uTZGFMPMD45b49l54wpx7dKDXeAn3aZwcrCWN2J1xc0p/wR3c43kxI1jHSnsqGosiFsJ/GMxE2JsZzftj/kxH35PrabDRRmp+jzrtNPOL9lXfv/zLfCzM+u2Tx/k8/3yh00JwATtjDkY9BPvhWWF7fKhp8ZtyuBuG7M+MQshvagHy2GP+2G+ZTbyLmLoDcpVEQL5geri7U7b2g13gMyvGbcMYQuGC5D/7VxYX5rOjxSp/zjOzSDnHp4upcBmZ/ttGZfoDxEyZL363Mh8neCx1vgT4t8YffiT/Tq9HNqe2wOWmXt4y4jpP2lKNDMcIOoZk0PozwxHiuE/bbKxlxv338w7/ulOaPcefX9vC7odTOuv0sh2LOodzHLYan1EGTAjh5D7NbKQVfxAjenodhfPCZKX53rEmHkN3QBhTuRLkvub2Mdb+25riEaq+XZgknPfJCXeO5D4m/wrNbDQOmu3B/eAgd45btGrm/PL2xA9K6u9QO/00xh5L9BBYO0A/irqt6lyRJuGshok9TfsT9MucrWNxhMwp33+VKTw1D4XsvozxeDSJsTYzn7LB39xv7SvNHuNtPYZ9lV2xE5FBszOJJSKGD5gRwwh4WPwZjyWKqwndn1iFsj+Qlkf5iEk4qTq7v5I1eZo3nHKuVmbTv9s6Xupa6hePrdEk1XzXb26BfQ8+Mjbi5uV1qmNlPP5XGxx1Wt/fulXsre4B2pr2x6ySt6PVkejxEuXdjkC3fuhEb9ZIl1XzVbG+Dfg09Mzaijs563T41Dfqp/hEq/iDU/gs7163kd0e/GN9hva0uRG6ee6WDGpdVLfe3qFcO88PLro24F6Xd0xsOL0Xxk+CEXehaintZmq+YWX5KbdHxu2Jnu2m3xHD+YN1udtzhsN2kjdE9TJcUw6249cMy6mXctOVaTTaXbjtZXm00zi/sWHZDk5k1/NQ0sgk/2bi0M38DrxT5XY7LcvteC77dM/W13VUbjLAdqF7WdK0XsFlz41+4E9Ued0kc78hj99Gnm0aE8Yp2JFu4fxHcv8+LXUafbhoRxqs6NP8zlxjuBbbp8PCQyC+F4LeAXljW3PhLtgAA7KHHR/cnypNwbbEYTqwWRPBbQC8sa278d+ZXbgDAgsgWAIA6sgUAoI5sAQCoI1sAAOrIFi14dg+y7j8+0j02upGnic3gDydq/BDC47n1nqqD2OxjoNFRIe/6gV5oCdmiFScnJ7oot3H/49Y+020nJQ8QaqCQS9n95fmj39mn6wP/RPb7y+OrAzdXniO+exl755i8cPz9Q/ehcZ8YeqEtZItWvPv0adU9nljIYxtW79/7V5Y+Zw9nWmam+RaF02P1jcqcl2VbEOr0Wr9TWD7T8kTZBmVmbEd2pXu1/oYmk3oC3YOUQqkBeb6SK2LnnvutK3ToQ7Ak5OkhOOZAQm8UDyRpbTgcurfjfNdPsQm9umq4uLlm3X8xeaH34PCxXrCHGI5Nh7oUE0N/yoexRg3Zoh1n71W6kOfcpw/4kROtd+FBxY/qTOvh6vjzG3sGJifHx+4bos7Lft0d2KuWcgvCXQ3oRyAXls+0PNH4Dgysv6EZpCTprS3UZkYZc5UhI5ZkEFffoaOK0viKRvJ0V/eQ2vqV08iBSCkH/6zbeGUTmbfNRWf4WJjx07wMe/PqHbQYWwPo+4Ufyd0gP9oLRSOfMWnQxdo+mhfrsIHFtqnIyxAtH+M4ApkpO3p3/7WL6Ls7yRt+uBFqRT3bKLZgxEbSqdzyw5b7ZE3Nt1LcgbhNEdqvb2h9Zq/8lCWbijva39Owo1q6d8kh+4XDamMHot5Lw2C5WbohWxHUvertZdje2ObaYmLlp2Sfu2OxsTQH0Du+EAUniVZ4rxST3oteW/sqxn8ari1aIlW0uhr0mYJcvqSvdS5PF83rLtjT8zKr1IKcwg6XLi6fLpu97RG/jOp6Z+QQYmlhPTu7U69Mbk/8eG/39MP349zdIDnvnSAM+up4O6MH4o9dLgjS4rped9HpPhV/vlG3ZCZ10I4I9wOlaNzgMqLfC3LX0Ndk7Cl9xqQFHt7+EmSLpsjdWfMVyCeL/glj6Q5IN1Qkt3mdQguF7RWXT1uOxaZVyeoo+fIXDyG+Yc77gswhvDL5eagr/nr08du1vesjI1G66RmjTHawGz2Q7tjv3vXTjM/iLl3c/LiVu/iyc6H5SR20A6R0aj9mlV6w3xV/jpGceBRiMry3i5nIFm2Roeb2/NwOC36WY98o3YIOfy5ixz477tvLlG55W9S32IL9Pb2/vfIWhy3bqSL5ltp9Gj2EjLkbWksyJNmiyDIk2U37E1cpoT1nlAnHG6x9IOFs2LTwcHV1m+7Ga3VQC+RYul9nJOA2gJVeUGcp4Qyj/Bmb243I8xHHdqnI63uw3V1bJ7nBat8K/Hy3bvi6qBOruHhoYthCOidQjUeZZsIsrd9mdp+E2kpcRg4lCYZe9LWYFv1UejETN1PbtN7N3nH52brviq0lK+pICdWC2pysMgyQqG+uLWb//JShDiUX19ED0aHOxMTO0Q0ky+8vEx4/NQ1PLF+MuYB+jcg/35we//spew9oCrP6xcG3eEdI5Ob9Zl4p+HgRemFZc+PPnSgAQB3XFotp49piT3FW2wJ6YVlz40+2WAxflQUR/BbQC8taJ1sAAPYQdbl3AydWCyL4LaAXljU3/vzKDQCoI1sAAOrIFgCAOrIFAKCObAEAqCNbtEA989vxT4Lz8/uPv3YlwNJlOv1lUaHrqXk2hnH+TjyW73egPspdzNUsPtmLI1u0InnKmXpG05R63d26T/IMZ75Vs5x9taHz7MP73p+ZVBGKdQ+fI44NMHmButyNI1u0bkK97kCe1zysI4OpumIX8qTw8NBxeW62jmnvYs6dB8vMfkoxKSeMb8Vz5KS14XDo3o7z3RVPbEKvrhoubq5Z1OXeAWSL9klxg5AuRmu6DEsrYAZbAkFGp0EdHv2CutwbYCvjUZe7cWSLVuj6kL3zHlsL54s9S7KnYINynN26x76MDNZhT2VdIj77Knc+bEwPDz8/6noJZWGF/mmrPkc2TY9ll16NPlsOKV5cSrL48OGde8+cQ8eyf5LEusVmbK4ZkjQPPnzzY3zufqpk8LpSTKxSPWFMRLZoRfzdYljYORQRs8PFMB3EdeUmO9fY60jHGf1zxqd3ZiSbQF0iUJd7DV2mzN9PtVcfimQP6nJvF9miPZlvy3i9bkXySnIPBdOEu1AD9lR9RonO7GA32iddqTjqcvtXzuB+YDrWU5d768gW7cn9+mDrDefqdffI0MbV9mxyYZFPCfeX5/qSYwLqcq9BjqW7ZySJ2wbQHgh1udviI47tUpFPKwnHsyOZr6fjaVMsLFxaF2NMoPyUkMEm+QtmFdRkvhJ/5RZJL/jZsY/0+7320u7rdZ5qQW1OVukWTFevb64tZv/8lKEOJRfX0QPRoc7ExM7RDSTL7y8THj81DU8sX4y5gCbySyH4LaAXljU3/tyJAgDUkS0AAHVkCwBAHXW5AWBPUZd7N/AT34IIfgvohWXxKzcA4PWRLQAAdWQLAEAd2QIAUEe2AADU9bNFv1ZX2fQlUZXU/rKkzNfgGf/YkMyHWdVZ40O+NS7qMeCqDh7fhsXpbCE9dXHwKXkmV970JbEO8x1JnsGMDcp+mO8vQ13uXEk7bIREfbWKHUFd7rbobCEFYP75OOVp19OXxHzPNxdXB+pLI+dX3YmVGdq670zmtMvMMu+68zPDLymv44mZrObfyLSwh3IfZl04p1+0TUXNkWjKzH4MVV+VQ520FhYP3NtxvuvbtDc7quHi5lomj41fffrrjX9pDlYVAaQudwP43aI17nzqm/rSRLa+myudcH95cRALU8Yn+j9cHX9+Y8/GQg03XSZAVV/YwerNWyMlOm/PZawxQ4+5yvimqopQl3sj5Bzp3d1XVYBCUnZaq6VfLymnEBMhDbpYS+dhNrJFW6T4zuquMP7o+m6x3rItJBPPusLaMuK575dKF7aAmG1Cn7ip1uCYKw5bmtum7mmxoS73+oa5oo+63MsjWzREzmNNrsh9Z+xIdH5w9yu8Ga+3j6/KdaNdGvGFWs1KSbVJvjpFcs/ix3t7fvrh+/G02xbqEoG63LPUc4VZxiROjbrc20e2aMa/Xy7k/kH+O2NHoqc3n7txK73eLv+1gR82bAHKH/dpsti96s3bos9Qjz5+u463giaQWA/umYyG2qeZ/a3LLbfjuiszOfeR8f705oC63I0hW7Ti4fa2ds/DXlhffemdT8n9KT8pwp+OqB85fLo4N9/E8H2xt6e6e9o7Ur15W2RADuOUjDJzzkll+RB3a+1Qh7NhSRe/cV1u+UODjpz7SBVUM8jbA6Eud1t8xAc//ZQr105fEkUmbn7KBTQ9JZIvjZ+jJsN3SfXByfX1yr/vlgzvJC3Ke9lZYu860Byznyp8mPXcbHTSLouhNPxss0RYsxjqZMW0e5IW1OZklW7BdPX65tpi9s9PRbLrcacnHogOdSYmdo5uIFl+f5nw+KlpeGL5YswF9GtH/vnm9PjfT/G3jcT9ZfrDx17bQPAxG72wrLnx507UvrB/KcOVOIA1jWcL/a9ZIm5x7yCSBYAX4U7UYkzeJfJLIfgtoBeWNTf+1OUGgD1FXe7dwInVggh+C+iFZc2NP79yAwDqyBYAgDqyBQCgjmwBAKgjWwAA6sgWTUhqf1nyDyP7j73GprjHvyddEP9lKv8adXtc1GPE43P5+TYsj2zRIlvowk9jw2SA6tflNvNCXe7hc8SxIdTlbhvZoj3U5d6qTF1ueVJ4eOi4PDdbl6tQUXMkmjKzH0PVV+VQJ62FxQP3dpzv+jbtzY5quLi5lskj9qnL3TKyRWvc+RR1uZeU1LcQ+gV1uTeCutztI1u0hbrcTTj7aotyO58f9U2qsrBC/7R1Rqipy11CXe7lkS0aYi6hqcvdCFXO7dO7cnw1dYlAXe5ZqMu9G8gWzaAud5vsqfqMZ71LrAf3TEZD7dMMdbkFdbnbRbZoBXW5myS3BuOtjSniL0OdtUMdzoYlXVCXuzfWU5d7CT7i2C4d+fiTaUe+NH6OmgzfJfUFoS73Gswx+6nBL54SixiZYmjSLlMrhNlmibByMdTJimn3JC2ozckq3YLp6vXNtcXsn5+KZNfjTk88EB3qTEzsHN1Asvz+MuHxU9PwxPLFmAvo1478M3W5J9pA8DEbvbCsufHnTtS+mHv7HQA0ssWeIFkAeBHuRC2Gy/AFEfwW0AvLmht/6nIDwJ6iLvdu4MRqQQS/BfTCsubGn98tAAB1ZAsAQB3ZAgBQR7YAANSRLQAAdWSLFuhqX530YXD9mmmWLgXWf0Q25nAd0Hv+nuoVnrm4cfo7ED/Mai6f8MWRLVqhn3KWPhfNkMoGq5WrUdF5vvl8EJ8td3vOt2k9knP7dbntMHX8/UPXJTtRUWiXPd9cdNFWH2ZVBJC63A0gW+wCWwbnr79sjQo/yz6wuXtCYLakAqbJ1OU2Ef9ihqn88+P1SbAlg5jM7Kdrk4bC+FY8R05aGw6H7u04v3+NqVdXDRc31yrzYe4ycvww26fV+CKA1OVuANliB9hk8edR5dn9XW1NvJwt1Pb9wg8s6ZhDXe4Nk5BIVQ/phLQI4JQTokJMhDToYi2dh9nIFs2LVY0kXagyw/FU6fyxVHMPa5EB6+DDNz/kTLzNR13u15AeVURd7uWRLVqnS7H10kUoOfb04fvxjtxy2B3dwD35Np+6RKAu95rcZVHuFqC93FOoy719ZIvGSbKIn39btDimi46cQxW+OljH8Zv1fwfKZhfqck9grpXlKjn8gEFd7saQLdomv0gkNSGfrk9cae7nm9Mwssj19+6eTzZIX8TZLkjqbI+jLvc65KdpnSqEPRDqcrfFRxzbpSJvUsDgL2jt6/hTahTm6Z/qqDI8jwmZnxr84ulDKX3g9XvASrtGLR1mmyVCt8T3ez2VrNjfkmpBbU5W6RZMV69vri1m//xUvxO6g514IDrUmZjYObqBZPn9ZcLjp6bhieWLMRfQRH4pBL8F9MKy5safO1EAgDqyBQCgjmwBAKijLjcA7Cnqcu8GfuJbEMFvAb2wLH7lBgC8PrIFAKCObAEAqCNbAADqyBYAgDqyRQvkkWrx4W/pq/X0a6xZunQYzzfvccFJe8EjVluQi7eaZ9ANSyNbNOc1CuFJJQTqeM9wf3n+aALmX8lrKkJv1f2Xri63xFt9NuODFqn3tTSyRWts5bPwZOXyGVccwIbXEbZsDnW8J5Mnvq8+/fXGv/Sd4DN2vyJ0esJrSE/IzH76Nf0SOinXj1bS2jAp1fpar64aLm6uWbHG38TaInKI4dh0qEsxMVz0nGGsUUO2aEtaKfL+8uIglvvsHts/XqvZsMmCOt5TPd9cXL2702euUlciLReioktd7o3qlxPpCh5NHd0LMRHSrS7WwwekYwKyRStcfbxjcz0eR594wmXL87gTXFsip1Sr2bAJx37d7Eqq0l44taKOdzTMFX3TKkJTl/uF/Kfz/HZ1Fz71od5RtnxtRikmFnW5X4hs0QpXnaVXYTteVEuNVc0V38zUaqaO9xz1XGGWMUP2FOoSgbrc83Wfzqc3n4f3z4a1hKnLvX1ki7YcffwW7zmlF9XdT7DjtZqp4z2L3AjqrglssEzkTm8OxitCj8v+KJS21tP9kLvvdbmdbPzsUJ/mQOpybx3ZojX2esBW3tbkbq6bCmdIMoQMajXbu766hqTJMtTxLguXW4YkZImdGV5MbMcqQo+iLvca1KfTnu/IUetd7/+aIajLvQQfcWyXinw3TnnxB9TwLTi5vl65eWZWt2hczrZgJtWcIMwLjRlJRtlDJgR+Kkp7QV45+ViloY5LG362WSKsWmwtWbHfd6oFtTlZpVswXb2+ubaY/fNTyYHoY+6MH4cOdSYmdo5uIVl+f5nw+KlpeGL5YswFNJFfCsFvAb2wrLnx504UAKCObAEAqCNbAADqqMsNAHuKuty7gZ/4FkTwW0AvLItfuQEAr49sAQCoI1sAAOrIFgCAOrIFAKCuny3cI7KrDyIrl6fCunRhL2MnHgb3W1AfZvVZVt1BV2xBbkjR8xholqezhXw/Lg4+Jc/kynq+ueiK6D5R4fkVdU86S5+Lho3KVoSWOt2hM4Yl7fDKykNKfNAi9buWprOFPL35n48THmN99PGfUN0q+zB6zFes1ZI59c2fDWMtuYrQujP6pfPSE15DLj1kZr8rzNlXuCop9ljS2vAixr0d57srntiEXl01XNxcq+YPKXKI4dh0qEsxMdT1YibWqHnx7xZSTiY7yGEeCWRGrjR3OBuOs/ByqoaClIu6PZexxgw95irjmx/JBHW5NywdUrqCR1NHd+pyb84Ls0VaBhfrk09yrj5RrjR3UmuZVP1i/pRTV4SWC225MWXLn+pcMaIb1wYD24xC2b3etNc4e1KX29NHRV3utrwoW7hzmInfJYyST3KvNpgTr6tVaW4/U86iuJv7YpmK0JJAfry3M6WG+aQTW3WJQF3uNZWGFOpyt2D9bGG+T/JD4I6dubRKzgdzn+T0ujr89t2ddN0d2NsleBXhjnl6fvvtOt4KmiB735263BOMDSnDa2/qcm/detlCTm1JFa9HRqeD2idZbqvbCRN9MsSrUdEMFaFlQA4Dbpg7EXW515EZUqjL3SIf8cFPP8XKtcPfiHrpHBOYsNn/2mimsZariG5OCHYsza2vMoj8Wkzk/JQOpuoG/RnPfhFkgRh83Ug32ywR1ozv9xpLVuz3pmpBbU5W6RZMV69vri1m//yUDrdjjlDPHD8OHepMTOwc3UKy/P4y4fFT0/DE8sWYC2givxSC3wJ6YVlz4//iv6AFAOyB8Wyh/zVLtBs3QgEAr4c7UYsxeZfIL4Xgt4BeWNbc+FOXGwD2FHW5dwMnVgsi+C2gF5Y1N/78yg0AqCNbAADqyBYAgDqyBQCgjmwBAKjrZwv3KOzqv79zi1k84O7lVDgtYrplg4992iP0x1ZkBh8GmpbobCH/cntSXe5YvO2XKmWMF9EPlKNmxRYVP/axR+iPjcv2gioCKAMND5FYmM4Wk+tyq4JcsZQxXlfmrIoTrU2Y/rF30ssOQwYxmdnvEzMAhvGt2HVJa8Ph0L0d57tn8cQm9Oqq4eLmmpXrBV0EUKpZJFU75BDDselQl2JiuOg5w1ij5oW/W+QeO49XQDnu5RUqQlOXe0uGBZCmnJcWYiKkQRfr4QPSMcG62cJn6aSUMV4P5biXNb8iNHW5N0sqVNVRl3uT1s0WmVLGeE3xcppy3IsaVoQuUZcI1OV+dZI4Nepyb98L70TlixDjpdLL6fDLH+W4FzC8ITKOutyvJKl3ayVjPXW5t26tbGFOcbsP9dyixZiLctzbV6sIPYq63K/FHoi/fMiU1aYu9xJ8xAc//ZQr1+rKt9S3XZOJnZ+y8eydEYXOoBz3JpgQ+qnsx17PK3zAZZHYC/ob0c02S4R14/u95pIVMx+CbnG1Of1pSVevb64tZv/8VBJx4fd74oHoUGdiYufoBpLl95cJj5+ahieWL8ZcQBP5pRD8FtALy5ob/5f+bgEA2Afj2UL/a5Zod2+EAgDWw52oxZi8S+SXQvBbQC8sa278qcsNAHtqXl1us/Tbt2/9K2zRz58/ifxSCH4L6IVlzY0/v3IDAOrIFgCAOrIFAKCObAEAqCNbAADqyBYAgDqyBQCgjmwBAKgjWwAA6sgWAIA6sgUAoI5sAQCoI1sAAOrIFgCAOrIFAKCObAEAqCNbAABqDg7+Hz6gkRIBIGtqAAAAAElFTkSuQmCC;" vertex="1" parent="1">
                    <mxGeometry x="80" y="483" width="527" height="274" as="geometry"/>
                </mxCell>
                <mxCell id="62" value="" style="shape=image;verticalLabelPosition=bottom;labelBackgroundColor=#ffffff;verticalAlign=top;aspect=fixed;imageAspect=0;image=data:image/png,iVBORw0KGgoAAAANSUhEUgAAAh8AAAEDCAIAAAAaw/H7AAAAAXNSR0IArs4c6QAAAARnQU1BAACxjwv8YQUAAAAJcEhZcwAADsMAAA7DAcdvqGQAACZtSURBVHhe7Z09Qty614fJuxa4RZIVkBXAbVKlpRtKaG6XMl0aKKG7bao0YVYQVkBu8Ye98Oro88iWPR/IY4/neYpElmXZPkfSkezBv3dPT08fPnw4gpH48+cP9p8rOHdcsP/u0Tb/P/cfAABARYguAABQH6ILAADUh+gCAAD1IboAAEB9iC4AAFAfogsAANSH6AIAAPUhugAAQH2ILgAAUB+iy7R4uf30LufTp8vli98LALAvEF2mxfN/jz4VeHy8Pz/5dEuAAYC9gugySU5vnl+F54eF3X788YvwAgD7BNFl0hyffXbhRfOyvL1Mz88+Xd42npwtL/2uxOUy3xe347M4WR0VDkxFXxonXXXOsNzqPSMAzBaiy6R5Wf68l/9Pv/x9bDNkaD45v75Pz88e76/PT9TYffTyvyefWoPl5cl181lcARMiThon3fZp3ZpnBIA9h+gySR6vT+yM/+TcBJfTxcO/Vz64LL+7oXnxYB+dPT/cnMrm/bc01PtXN4sHKeCfrJUxkUrqj5zdySHhGFfB692ZKfdNii384zp5XmfO+nj9PcY0H9HsA71nd0lFmmcEgNlCdJk+6rV+WMrc/HNmw83x2dVXGwse/3uW/wxhoH9/Yje7WXsR8fLrhy1n1is25EnMsxlP/wshzUe0j3/5IFiGZQvAAUF0mSThrX58r68XCv2juBvo06O0DvwiwqyBepYa67JWRKt6RgCYOkSXiXN89o8bjNNCIUs337L41c2KVcT9uV1ELB7uzlzGGqSIF/jtn9f5xU1vRNvmjACwxxBdJs5LeNNi48XJextpZCVj40vcu/hsB23/hkSenMlmLyZarDfSH//1Uf6LJzXYn62F1/rrBBfL2mcEgP2H6DJJwlt9/14/xotj/5rFLAVsAb1Xfujr32ukw/079Pvz5i+AFw9h5bGasHzyJzXEn62lky6+rqhvkzMCwN5DdJkWfnGiOD1d3Dw8x4H57O71+UZ+suUxu9XeNdl0EXF89Vt+J9Z5VnOJKypk2QJwaLx7enr68OGD34Kd8+fPn0r2l7+EMauIxYP8iDhjeSlrGDPAs3jYLfWcC9uA/XePtjlrFwAAqA/RBQAA6kN0mQ3HV7/lZ8KF1xvub/B5LAYAO4ToAgAA9ZG3+j4JAABQCX4zNjL8rGXG4Nxxwf67h9+MAQDAsBBdAACgPkQXAACoD9EFAADqQ3QBAID6EF0AAKA+RBcAAKgP0QUAAOpDdAEAgPoQXQAAoD5EFwAAqA/RBQAA6kN0AQCA+hBdAACgPkQXAACoD9EFAADqQ3QBAID6EF0AAKA+7/z/AAAAb+bp6cklJLq8vr66Ddg97969w/5zBeeOC/bfPdrmPBkDAID6EF0AAKA+RBcAAKgP0QUAAOpDdAEAgPoQXQAAoD5EFwAAqA/RBQAA6kN0AQCA+hBdAACgPkQXAACoD9EFAADqQ3QBAID6EF0AAKA+RBcAAKgP0QUAAOpDdAEAgPoQXQAAoD5EFwAAqA/RBQAA6kN0AQCA+hBdAACgPkQXAACoD9EFAADqo6PL8vKd4XLpNyMvt59M/qfbF789NO58lvbFAADAHjCxtYsNcCfXj37zsHDRPUJknRVqzoRrd4/tXGmG7LyBH4ZFR5ezu1fD3Znf3D0vt9/uj44WD3IZjhEvZiROb57NfT/fnB7dn+9uuQgDs7y8OPrXNumHxRGuhYNAR5c8nseZ9Kfv/7mcBmqq7fuKnp4ZpKZGViyq5+mhp738+vFoRtf3P32+uxRXQ+yNag6i6vYX3b6kPeX4r4/m38f/nt1m0VyWhn39PpfrjRIN2CjbKO3QlTfKK2/4mmFtzu5+Xx3b1Mn7U/NvcG2hxUrWp9tlNH4wtm4DjuiskqcMzco7GkDhGg6MsgXK/SKV1dZzJrdpl+0ODoeVqspK5MX1BaVMjzpJltYHpWPUmUsNKRTUF2io2MHtlMogE+awdJAZlp9H22TYCJiyPkMdZZNp8p2WIa6KuCjRm66gPSg7UcpXJfR1pZSkTcKU85v5yaeNuVCf0neU3UGHuSx2n92l7aEOd0l1iK7N0D5T3BVrbFUXi0AvxlQ+FfH+CMZsO8w7yDnM5btCbQf7jU5PZYWjz1z9YbOz2Bww9+NTmfUMKw2VWcMeLGmT29qtkukkq6vy2dmp3YZ2UFbIoe8kO2FWlTs8LyuJjspt0hXUx2+BOdanXl873rssf96bk335W6ZbZ//Y0+UcX/32kzE3zX76Xx5gLafvT3wqw1V+84996nX89xdT++OPX/7405t/bb0+30zxjq++Gou4Eum69BW6meFalzR5Hq9PzNzBvnpafLYW6jPXy/+ezL6ymYWX24v+l1h2vRjOdHT22Vj6/qeeuHz8y5oU3kiYHIpnTc+1j3x7WqzvBqkXrKbhqTW7wzx6zZq4zhXc4ClaoKNfmLLuYf3zf2a363jOR3mv0Yev7GINeofHTop30R4k1628Z0zZgHJ0sYPWCuL66txcryINj+G2GjQqd8bowhrJekSM4AZTqdZV0uhQXZe0T6gJyP25rFB7zWUbeWcA+J/EltObG2O9LmwFcqa24Zyxi60slq+5hJ43pvfb6ZxMHsV86lGK0N9iVwz5HZ5as/I59Jo18Z3L4CbonoIFuvuFK2wywjxYXGuqk7K2mAyAZvgLU4i+LmbwAS9Fu97+HilMONp30R4k+ytfOXRvSjm69I/4BjMTM/egVl8J70GT+3h90XhkaGlUnkxgn0g3zOZM48LL9cWFvJhRN657Xc8l7SFuWiE32Gkug5uJdE0z7q8ltvx79Zff7iR1OovrFO4tWLmVJSvfnxNfNsM/CjCeXb/Fds4fLEVPrVn5vHrNNqweygKuX7jfPpmiZix2by3MsH5yfSRl7fFylIs2qmsUqxL8jhTt+vq75exOTuOilblyR89d6EGyv3J/Leb4jqF7UzqejLmB3i2Zlt/TKjLDDWt2hNuIuBSRDbVuzJaY9qxhCee75ONj7EX5om55+enWBqVtL2l6uKW33GyXufx9dgQAS5xedeLj9vdWiOgLLrAppvOHocZ3p9ClO1qs796ucHiqUqbHU2t2h/n0mm1pWaCjX7zcXrpRNy0C3A9dG/Z3T/Pvv0nhzi7WQXd/D/gAZ8gDSfMu2oPky+rKa+OvtPE6J1746c2D7GhE33Rfi4VJ2r3ZcjPVFAqn7bykytfmyk/oj9CZqRKXW7qkyWOu1qf0vVuSXQrmathaYfa7ncEAtt5ojZYvmueNx8cyarNx2v2w8WgYC/lUZriGLwTVYp27FotQPrhBuzE6uNtT5cpjfjykq9gcMDflU5n1DOsbKtIs7ApmDtAncQX1joTNjT6UAtmG3/L4KoqoE6ZTZHeRquqtPMvsP+cKzNE+9fr6zm3YKqeNWX+e3xsL+XdXc8Esb7eyv5kN2+V4Zg5rI9My0sIbxmQr5860oY/Btp0LtkfbvOPJ2PRw673+B9AAADAR9iS6uIebQz8iBACASuzPk7GZwuJ9xuDcccH+u0fbXKILAABAFZ6e/A/qWLuMDNOrGYNzxwX77x5t8715qw8AAHsE0QUAAOpDdAEAgPoQXQAAoD5EFxiWl9tPScto5iwvW1pPU8C44J2Hb47C7iC6TAc/CDQHADNkGQYctdTgE6l2uuX366OD+Rbm2T83R/4LgW2cHy3JukMP/Lb+k+uP4btRB/2NIGfsRtNWHgh7hnbKwUB0mRanp6fuy6qR5c97+1m6YQmfuBMaX7R7E+bqD+lDy8d/fQwfoG2wvDx/ip8RPPIfOF9e+k+3y0cIhxDbN7HdBhY+PCex/eLoa6Npmzhy8uNLaPruy26DO+VwILpMi49fvy70+CSfwFl8/uy3hK6JlZoal+fG28zD5PDWYVmmOm2hfvk6XPo2XHagbPjrzM8iNWalAqp+lX251GUsUq3JNP/Fq1NjRHZsytrkArLy2cbZ58x9EfliezBEFNkQ6yy+uo9VisaE0zbS9ZlLUVcumL2F+8ou2dZgd0hsf38U76BR1UEhX63/fSVfqFfIwropUlF2iifztXaO7PDkfvCETJWVCurMWTmJ6DI1svFJFBiyj6stLy+O/rUTLbPC0KscGb7cd7PTp7hNq00PRZ5vnjI9oxqY/qVm5O365aKc6ESTlZLMQtf1q9nl68PRt19/W9lHuW9nAf914cfrk2/vbSlZLZyEYzsMWETOpC9gddc/eZ+PRx4R/HB6UuamjM1kSGtbp6FBKVOLwsqvcF8i2xHldKXR2MPkBI/X3+L9RiOARexz9OPCD+uuca10Solio2q0UpPZ1Z5Fy8l/8z6ta+cA0WVySHjxWkN2buUF1BxWHNumRBpIjWOmhTbHcRuaHsJDEStotEZPaRE1W5uxw06N49TP1t8QDJduU/qstcSWjysf93Vdv55dKoO0WTz4fereOw1YwI7u0f5SScdjL4UsTIpWNpNnedBiZQxLmm4N2UCDSIfF+9QU7kuFF2u2eFjDQds0gNliFfq+pLDQ1lltO6VIqVG1W+m6/XE+H4InukyPOFLI6N2cuqZVdJLiNsiUq9kqbedR+Gl1qqEVLooEJaHsIbQNOVF3dTPcguBOP+7TMSzW2nH9QnlB1I8/tsOApQsQvO65Zcv7tcizq5+fxY7PX36cFJ5/2Il0wJn3aC2lHndf8hDHNho7hnV+SzwYEDzxcaXoOLYG+8wpBok2jRmUpdyoGq20pz3H5idzj2w6udcQXSaIHykKwSV/UpPeUBaHFCtfrTCtW9r78ZV9kCRs9LJXgl7EhpyG4p5hjVH/p3293TpziGGq1o7rF7YZJO2xXQYsXoCQsi1hjrohehV0fPXvzaksgmSoym8kzg/sWZ/ff1vnKby3iQyPptHoltA4Qfuhz4EjDawZUHqcItiu6echcbLR1agarbSnPad29vDxej6PL4kuU8SOFOfn98XnIh55buKT7hlKa77qaglNteMh/vrIUj9fHsnkK+qFLy/PW/UXuu/9vXvpsAZd12/XduGNiVULt6k2ca1VvHdtwDL2Ala9mmlQWkQ2xiwJALaMepxVcqF9FFfSYy/flzOXmTunanJLdT1oO1jEYuFZp1jHmnKlU+LcrD250o2q3Uor98c9wRsLxkDZX6Y9YQpjp0Bx3mzacfjJcGzSpzc3CylhS+ofFKvCWQ/QZTKkhuYvkv22rTwQykhmnGr11y+74100TpSuU1fYOKaj/nRdWX2Ncy0e4uF59ZZgQEPPBaQzCeqCm/hd5uB0SSbbp7I7USUKN6IvRtKpsOD2Fu7L4CrLstQJGhUdAuamfSozv+CNocyT7JYye02mXB1rV42qWI+6jFS3ughD7r+9w9yBT+2Trv5MMSvsOdt/efnu2/sxJOLl9zn/fd3VH3rE25Rf0aXXJQM4t/e+8rPDzDvXJNE258kYDMlZx99/zBT7Q6HWI8pdMe7ZARoQXWBQzvo+jjIbzu7s+375HcZ4P/khuMC04MnYyLB4nzE4d1yw/+7RNkdXHwAAqoGu/lRgejVjcO64YP/do23OexcAAKgP0QUAAOpDdAEAgPoQXQAAoD5EF4CZs+lXsQGqQHSZDmoQcKzxgVzYF7R30xg/9MBv609f8D34j8SIEILuWATeISG6TIvss3kjfJ4LhuHl9iLotz8nnSolX4iu/g5YXp4/LRbpk5GD2//AIbpMHZlt5XNd6QThf50X0p5wkMkye92kzRC7kBSNFas6svzG6WFLjq9+h7mCfIjd6RLYT7f4b+InCXdtf2P96C9H2ZvlRmK/TIOufkC+eb/4+s97v9llf0/WDbQfZIcnN7knZKqsVFBnzt8fRJepo/UmrDSIFYUQCSqnwC0qwkFLt0s0vqgwr1hL5R4qIRqFIu/SVvNqaOF0SICgq78NVm076g4LK+1fAgn9DSC6TAsttOunNmrksMKDfrLltKUuPqXYYop2icaXFOYj66ncQx1syCh86lIExnI65b7Q1d+Ydmxp0rZ/EST0N4DoMi20pFCYanohZD9upI/gnt09LB4fswEoLbxz0fic7AmAk21drXIPNXCz3JI4p8ykI+jqV2V1bGnY3yDRJi4HFeUu1lCUliWKRlRco+VnKaFfhOgyVdLjeZs0Db05bsg7ypubRRJTdYEiBCetd5ejusL6KvfwZpaX78TacfLbLeFu7Y+ufi1ksA8TJokJ8oTg0+1Rt/0FG6/9QUjob427VxgFZX9prbkcatwKDVmposqwL5t2l8sPWT7p0+5YX5WqNcuXA1R+Oo+qEzbF2NennLWjPz0NhyV/tTIjmddkI9XpdmVHSAXKw83K5o6yf0TbrGj/EmavO6ZxhE9LMtUpKeuLUJ86pT6NTs8HbXNpjT4JY6DsH0aHgG55bl/K0S2z0XgtLdH4uCfWoQ4zmP1+w5W3mYZ5doEdYcztU9H8keQcR3SFtn/uI8HtbXtTcJXl3konaFR0CJib9qlEbtJknl7rpN5R7GLFepTLS+cTclfNA3NbPoWu/uiYZfda9penKttJpsvPV3anMA+KdZ27Ab3e3L6RzJMB7A8r0Dbnvct+gKotrIRGApOC6LIXMG7ASmgkMC14MjYyLN5nDM4dF+y/e7TN0dUHAIBqoKs/FZhezRicOy7Yf/dom/PeBQAA6kN0AQCA+hBdAACgPkQXAACoD9EFYOakz/oqvSuAoWlGF9cQ1xFNW78krIcaBBwYdz7kzo2D/NADv60fXX1HYcgq2n9opxwMOrqIfOrF0dfsO2tl1i8Jm5F9Sy98qh3mQfpooR/klaYhuvrDUhyyivYf3CmHg44uZ3cyoK2j/7B+SXg7MpVqzqFMZ4nNPptqqQ2HFDOZ5j/pYDHLE/MMPlufruM06XKy06l6YQ20piG6+sNSGrKK9i87xaN9090HXVYxU2WlgjpzVk7ivcu+o6Zarw9H3379/dvNusJU2S+AStL6plWLmpVkygENBSTZH3XdTVF0wt9K0KLyA8hKXXd09QelaP+VTimB2H4Zosu0KOjqW8LA1Jra6KmW0/S2qTa90vpFlK67VTxEJ/wNHF/ZqO8HkMIoj67+uBR19YuZbRDbL0N0mRZaZ0gPQmpq0xqZtlGztT3AjHjPX364cJbr59tgpqRC0Amvhx1W2ortMmmONO3fh3MEuvpvJLN/oJkp0abtOlMuPttCbF9BdJkqSlc/UczcZsTwDd9Oj23gUkp6BpundN3RCa9IePjSkL03oKu/S4r273GKgNj+JhBdpooME62H7u1M+0jEP+k1zbx7NIq/flFP8+Wtb/dUSSbZj9ffpanboes8tPqO9wHQiXaMRHRnPf22xMb5fMmh7J9TcmXwkZk7p2ryxtH1oO1gKdp/pVPCE87GhMwhR7hUu2MeZifyxmpZK/t1bMb6JWEFxno+lU17hDCdyfJ9pvFANHran/wgHgrHuxJtMXbJjUekA1xhm5kVUU5P50nnFtIZQTAm8SllPGU9bb+Y22V/h9vbdKXDVZY7IZ2gUdEhYG7apzIHCN4YyTzKOsXMNqbKsD/Wjti+uQOfQld/dMwKe3j7y49VkNbfPQM4t9eVS3T1M3bSuSBD25wnYwAzwf5MKX+QAzAe/dEl/tFWRvezfQAYC4ILTAuejI2MidbYf67g3HHB/rtH2xxdfQAAqAa6+lOB6dWMwbnjgv13j7Y5b/UBAKA+RBcAAKgP0QUAAOpDdAEAgPoQXWaHfK/VfcwopeCQSV/wpTnADiG6TITiH65uNRbIxw/dZ1z5Jv6EKA/xQw/8tn509R3K2OEvwgm8Q+MbHoxB0/7yRbveb+fB/qCc+7DQXzz0XyqUpM9WyYqYWvf8o4hvQneuUsca3P4HiLY5a5eJYyZXZp4VVzb6Kzxq3pUmXpKZbfgjdH4UBF+nsFtWpS3YiiRfKDIfTqJHyxeiqz8sy+9mIR9kOj1l+3uyPqD9IDs8uck9IVNlpYI6c/7+ILpMn5IkvjTToka34uX2QgnlRcrCEh2FoTaiAOLM31bzaujCdUiAoKu/OVZk8seFH9ZdX1lp/xJI6G8A0WUPKOioWwnCXo1uCRcfF2a938AqIjVFpLoKQz38euP8ProzQ0QRc4qeEtDV3xirOvwlhYUo4hVp278IEvobQHTZO2yL7tXoNjgx1rvPftPRpdbeXdiSS+7Dlpzd2bHNChq3F5pudh3o8lQJ53d09VcShnIJC+3BPrO/QaJNXA4q0rMtJPRXQXTZO2xD7tXoPvp5ef5089wameySvKXW3lfYIi88oRpxcOuRcC97qoz3u9XVRVe/g/SyK9FjfwEJ/TdDdNkDCjrqvRrd9/dPzReYCVmma7X23sJQCTPjjc4y478bx1ZKuKOrXwsxzuOPX9YS8c3XSvsjof92vAVhDJr2b/5wUrY7dNRVk09H5MebIn7D1WMzU5l1Crvz6PPCuhjP+JQ1aSCZXGXHTG383EGC21tsD76y3FXpBI2KDgFz0z5lUJZIJkqZvdZJXSP1OiT0i5jb8il09UfHLLt77S8/PkESf09Z5dwt6G0PS3T1MwawP6xA25wnYwAzAeljmBREF4B5QHCBacGTsZFh8T5jcO64YP/do22Orj4AAFQDXf2pwPRqxuDcccH+u0fbnPcuAABQH6ILAADUh+gCAAD1IboAAEB9iC6wK+Trsu7TSykFO0DM7cHqsDuILhNDjQSGNT6Ruz/IVxndR2cPUfC/PMQPPfDb+tNnfQ/7IzHK2KFjDW1/8A0PxiCzv/3wXeMTe4f37cH5oJyLrv4I6M4lnalp4MHtf4Bom5s00WVMlP272n/7O6wmK//YqsEfqfPjwGIyzW6py6JPUioveb6MOn9Myu5YtSqR5zvMXnVhca86w5wxNvUpRbp3ZVxlH22oZL6A2Wty5EiL35vVlM5gD38wW1nhw8Hcs08VLNllf0+2rY+WHZ7c5J6QqbLys0Rm6Q9zXz71+sqTsckguh8tFQiRjnCqRw3t7l9/W/GJ1EFEkNWs84tq3oZNxPm1GEZk+fP+tNLjrIPW8I/qIqt13dHVr4ZVnkRXf8cQXSZFUWfb6t61tbttKsPqEnapeW8izm91q7Lwsq4AUtRL7n5jdKga/ujqj4iVIkZXf8cQXSZFsQmG+dVK1dpeNe8cm99T/uzu9et/J07yVSLGyY8vz3pMjFGkobqv5mXleXJRw/8gQFd/ZMJQLmGh3dMy+xsk2sTloCL9DgBd/VUQXSZDW+bbINOi0CtWjgy9at45Nr+7vHShn5/NUBifvEmsUUNifJBsS7Qod+BODf+DItqmR9fdmhdd/XpIU2+2xx77C+jqV8HdK4yCtr9trupVX7Yto3hK69w00tsDwqZs+GKuH6gNnV8ob2pNKV8g7ZZUOmdewufHwqkmycruJiRnTHKuuXttZ2+nZLuyGdX+QGZG2UhmdLuyI6QCZfJmZXMn2V+bKhlFmaTfOmZv8QiflmQys6SsL0J9jXOHbJ2eD8rmkia6jEnT/rbNBkKLdYTRQ+e3Wqg6PpWSI9cX51edQdcfs11tNs+QSqTrM/gCZq+vSteq8+eMsYNPZcZRd56yY6Y2b240we2NXkt+MLjKsix1gkMweANz0z5lUJZIJkqZvdZRzTWaHl39Iua2fApd/dExy+7h7S+/YEGcf/cM4NxeV6Krn7OTzgUZ2ua8dwGYCUgfw6QgugDMA4ILTAuejI0Mi/cZg3PHBfvvHm1zdPUBAKAa6OpPBaZXMwbnjgv23z3a5rx3AQCA+hBdAACgPkQXAACoD9EFAADqQ3QBmDnps76FbzMDDAXRZTrIIKC/idvchv3Fi7to7EA/9MBv60+f9UVXv6Q85JyT8od2ysFAdAEYniDu4pAPHMpf1StNw4fF/Xn9qcTyuwssfHlMIsjF0dfsI5KO5eX502KR8gd3yuFAdNkX1IQqzagkM02vpAeFrcL8y2SZrhJn0b7b6IPcYXaHrtkUCX1MJUunMKjclK0z1STxMLE6nyIcpTUNRU3EiYR0WN5j9pqcNZ1oTnD6/ija/pANL+H991Vb3Eacsfj6z3u/aW1WcIpH+2Z1XyhkqqxUUGfOyklEl/0gVy16WjWjKqp/G9aWZF9N+RQd1ylaff5z4wcgJ95PFDReqeuOrv7QWBXuqFAsrHRKCcT2yxBdpoUZOfwcRiurxtmupa1636Kk/m3ZRJK9n9Ip1r3OmcuJ99L1rUlRSsxBV39g2rGlSdspRRDbL0N0mRZawyhXGtJxJ9OyL0rcp8W2Vv9u4vrBmpLsTTpOseo6D0BOvIc8/moyXXd09YdndWxpOMUg0SauERXlvtCQmZYlimb+YvtEl32hoWMXJkt6R1TDy59PtV9kBnzzL0iyr6TzFCuv8zDkxMtky5EeXXdrK3T1B0UG+zAzk5gg06JPt0fdThEQ298Eoss+YEeO9PZkE2Q880kh/gYme6Zv6z83XWz9lYsineIN13kIiM31UzH9tsTGndz69sni9ff2ULO2E+0J4iuxrgdtB4r+GZ/EBHlsYOZCK53y2x+jpY0jqS/ktr80HnMOCqEj892M8caCMVD2D008kG9nC4SQL5n52sVvxZav1L9d4bgnHWdwtaus/HSacEmlUxg6rzORnXnOmHv1KUEMpv0rJMPEPZIVLCTp/BC3d00nGtIJWueeP+amfaoVCtpWTTnJZr0mM1WG/eW+UKhHXUbpfMKe9w5zBz6Frv7omBX2ruwvP1lBkn2XDOBcnLgBO+xc4NE258kYCF2/ZII9AifCpCC6gIFxaQbgRJgWPBkbGRbvMwbnjgv23z3a5ujqAwBANdDVnwpMr2YMzh0X7L97tM157wIAAPUhugAAQH2ILgAAUB+iCwAA1IfockjIp1zdd45SCmZP+oIvPocd0owuriGu/DKraq802KpE1UHHGt/I3QD5LqL7wuthfwd/DMpD/NADv60/fcH3sD8So4wd+tXQ9j9sdHSRga0sPd3g5fbixxf3CbZn+SA1fqlK+Lxd/nG7OqQPw6ZP48MOWH4PXUbE2n2PUfKF6OoPjIkjJ8EFofUPbv8DR0eXLunpFsdXv8PYJF+VRvCuHqLBUdCmkylWjOGy4TpCSuVpuxHIjitUArsgyReKzIfrMVq+EF39YTFx9ijKdHrK9vdkvUX7QXZ4cpN7QqbKSgV15vz98eb3LqLBc8hCtpVp6te1EUm9UOb46l+vwy25ofeYFlyU71boSmCniAKI0/VYKeHeIQGCrv7mWJHJHxd+WHcdYqX9SyChvwFvjC62/fMAvxrtBt/AyrUukkiEU5i6+JRii5O+7ZXvblYCu8CvN87voyx+Brr6Q2JnbV9SWGg/zUdCvz5vii4uZDeWm/AGRAy1R6/OSazeffablrO7h8XjoxpPmsufTL7bUKoEhie88hJB4/Zq0s2uA+jqD0AYystP8zP7G5DQfzvbRxczFTt/unkuTcNgS2QS1D2d+XkpBm+ON0vJvUlvivvluzsqgd0RBzd09XdHetmV6LG/gIR+Fdy9BsRmvYKfBmvXVYVgHZT9rVWV7qnyhGvIweINyVU5RB+b1bNOJTAQybnG9toj3j3Be1lS9rcyI5kTZSM50e3KjpAKlMOblc2dZH9tqmQUZZJ+65i9xSN8WpLJzJKyvgj1Nc4dsnV6Piib229Z+qQzlyLYq0Wz4ByNtCuM8ez/1qa5xVWjVEmDKes2dPvMiigPpcM6KoHBMOb3KWv8gLJ7yo6ZklV0qsXtjf7NOp6rLO+L6QQH6G5z0z5lUJZIJkqZvdZRnSWaHgn9Iua2fApd/dExy27sP1cGcK78GAld/TWhc+0ebfM3/yIZAKaB/e0S0scwFfqji/8RZYND/qMsgKlCcIFpwZOxkTHRGvvPFZw7Lth/92ibo6sPAADVQFd/KjC9mjE4d1yw/+7RNuetPgAA1IfoAgAA9SG6AABAfYguAABQH6ILwMxRklXz/2oiTIdmdHENceXfS9JeB0CMmizf3sLSe47qNcGzQ3ckW3/6rC+6+vngpsyv7D+0Uw4GHV3kL/PX0tUvi4QDQCdmyNq9rju6+oHS4PZyexE88pwUxQZ3yuGgo8vauvpKoK2kmwADIr0kn2W55t+cl7mP+MSS7elYOrRZTXaQL5LlNy4C1mB9XXdtamPo5FKL2WtynHcNfm9HqzAnQFffURrcjq9+a6FJN5CVneLJuoF2juzw5H7whEyVlQrqzFk56Y3vXZJIOOyGsoK60yc6PX388cu1TRlXTmPgL4mBlzX5FWjvV8QqH26q646u/u4QNUkRD1vplBKI7ZfZNrr4yVOXSDgMRllBXTrFx69fFz68SHD58iUKhZfEwCW+tDT5E2jvV0UGkE113dHV3xk2jhd0iNtOKYLYfplto8sKkXAYjh4FdTPG2PBig8vffycx77T21mLgxosNTf5AUXs/yMAqIVjYgDBqpKcwGru6CaCrv0vcKqM1wTJkTjFItIlrREW5fzVkpu0MQzF/sf03Phnr6CkwJGJz08SzYUQejJm27MLL7c97CRjSFaxrXKzw0wH9XrOlye/o0N5PSnpKdg/WYkNdd2tqdPV3wfLynbT2uPjodoqA2P4mbBVdTKQOBpDGPKOl3H5gB5JzM0uKwcU+GBMvSHi5vr7vnLzK0xaflNgiUejKdhjVou/vn4oTOdgecVl4KRZfVqrHWe4xWO419+Tye3uoiT9kyl7MtFuFO4F/DdD9oO1wkSWHDi3CSqf8dmGgPMdK/Su3/aXxmHNQHDnLL9VmhzdWy1rdStM6QPfqUcMqjAV9Kl9WFFAq3K5otpjQut9+h5RyyejaJAauytmC7viUElK1qSpBHwvdGIP7lMH5zJJslzKj1bWpc3cIbm/0Z+YFV1numHSCRkWHgLlpn0o9wCPGaOYF2yWb9Zos9Y5UE2L75g58Cl390TEr7G3sL+t5FNSnzpbO7UN+d4Su/poMYH9Ygbb5W9+7wCjYH6R0Pf2CA4VWAZOiP7r43x03mNPf++wnDCPQhlYB04InYyNjojX2nys4d1yw/+7RNkdXHwAAqpF09U3qw4cPbgN2z58/f7D/XMG544L9d4+2OW/1AQCgPkQXAACoD9EFAADqQ3QBAID6EF0AAKA+RBcAAKgP0QUAAOpDdAEAgPoQXQAAoDZHR/8PiIDotirBtsUAAAAASUVORK5CYII=;" vertex="1" parent="1">
                    <mxGeometry x="780" y="483" width="543" height="259" as="geometry"/>
                </mxCell>
                <mxCell id="63" value="" style="shape=image;verticalLabelPosition=bottom;labelBackgroundColor=#ffffff;verticalAlign=top;aspect=fixed;imageAspect=0;image=data:image/png,iVBORw0KGgoAAAANSUhEUgAAAiQAAADACAIAAAC72++aAAAAAXNSR0IArs4c6QAAAARnQU1BAACxjwv8YQUAAAAJcEhZcwAADsMAAA7DAcdvqGQAAB8vSURBVHhe7Z09Ytu6EoWltxbrFo5WoKzAvo2rtO6kMmrSuXTnRi7tLq0rN5FWEK3ASXHlvfhhBn8DEpAgiTBJ6XxFQoIgSJ4BMAAoc4YfHx+DXfz58+fLly9mB3wiUL5FIH4XgBXapUH9/2f+BwAAAIoBZwMAAKA4cDYAAACKA2cDAACgOHA2AAAAigNnAwAAoDhwNgAAAIoDZwMAAKA4cDYAAACKA2cDAACgOHA2AAAAigNnAwAAoDhwNn1iNRsSXx/fTcLg/fErJ81WJgEAALoInE2vef/1sqb/pzdXvA8AAN0EzqbPwNcAAHoCnE2PWT3M677mffU400trxNfZ48quuZklN78Ip1flxKKcW6iT8ArduzkglutEcWbTHPRLe5HSfK4d96nKfXc51GG/ckgnBmeK+wcAdBQ4m76i+tz7Z9qYLH44X6P66dH1/JldELN+nl+P8l/ovP/3ZrYqXIwuJ/T/86sty8yqJt/+vdAJlpzpVsZ9ruejkcuhDtujqwc6MThzjwcEALQEnE0PUf3wcKg6a9XjTqbLn99db++mOsvNh2KzXGgPcZ87+N/8NefT6cspp2kuvt/xrvU2KV/zbu6BXeDVE5VjC9Klfjxd5d7nZEGHN+Z0c3R0s1gsN3yeOrYIbgoA0FngbPrN+u11YzaVr3l1Ux32ABdXxkOs//pM2lUx15xdYCY2k8sR74Zc3YiOPeprnq/JB6pClQv87V1gjbz7nCy0G724+qF9kT56cfXvP/893Op1NDX3oSMAgM4DZ9NDzIifu+D183Xw0kUx/ifdz29HT2zqK2Ma623UDCO5hqZZv/2XMZU67D5XM16A45kRAKA3wNn0lovvv/UC0/rlV9C1i54+9g5GuyoiWCdTmBlH0gkYb6Ou9yvqlWidTC96ree3u1fudtxnHDcr0g9RfQQAQEeBs+kztvefP/A7C/MSn3a5G7fvT/J+Gv2uf3Agf29QxSxoree8ehWd19hFr6oHlOTdp3VY0aPjf+jfd+N6AACdB86m1xhvY16k2Jf4g+drfi3D70+2uw8D/dp4pLv02isdehNjV+ou/v3GfoJIraGZPNYDRsi9T30r5qjxNfZXcXymPQQA6DxwNv3GvjxX3obcwdUT/UDL+YPBZDJdbra9q98X721Svsbn2fIbsZz7nCyWLgsdfmJPxIuH9kSVrH+OBgDoPLzyvYO3tzezBT6Xz1Je/9jA/jhZol+K+Pc89i2JSGkaczMFr5AHqn0XgBXapUH9MbMB+2Be7GyZ1wAAQAQ4G7AH7usAdw0uzQEAzoChmt2YzTR//vz58uWL2QGfCJRvEYjfBWCFdmlQf8xsAAAAFGf49pb753QAAADAYWAZrdNA+RaB+F0AVmgXLKMBAADoE3A2AAAAigNnAwAAoDhwNgAAAIoDZwMAAKA4cDYAAACKA2cDAACgOHA2AAAAigNnAwAAoDhwNgAAAIoDZwMAAKA4cDYAAACKA2cDAACgOHA2AAAAigNnAwAAoDhwNgAAAIoDZwMAAKA4cDYAAACKM3x7ezObacbjsdkCAABwTuT4iByGHx8fZjPNcJiVDTQOlG8RiN8FYIV2aVB/LKMBAAAoDpwNAACA4sDZAAAAKA6cDQAAgOLs62xWs6FitjK7jvfHryr96+O72S+Nvh5TvxkAADgWdDLN0sOZDfu70Xxtds8FfmzrzVM+HxRC9DuQvSWCSh/saOs0aZcz7WTKsq+zuXr6UDxdmd3P5/3x/nkwmC7pNjQt3kxbrF6VBoPpzfk9eTusZreDn1zZltPB4Pn682bwwHN1o8QfPL/WfMr7rxflFRpsDuhkirCvswnHEHp4ofj68FenVHAZ3KBcDhEVVFIlyWUVJ7shPderyeLy1aTrW9EluC6AT9R7omxz0/Vb6h3v/9EfWfnGFRVKSlLRp6o4H0hoqJMDlVfh2e6k2G1wojzFVp1ecfX0+/sFb40uJ+rf9d8N70XqUup5pTgaJ1HFGpEzOGslmy0gcg+nivY2b/9VnrLia+KCJEQO7GKzxzsZBWeuqixaCNiO8dxbEdk2C2ps2ufTKE/ZZGM37Y5F5TUJ4ize1MmyLFuEG03IXZ2RTwou5NNFDnlffou21YbKZ3bDi3cVdYtmK/FUZq8uVKBIsKPgc/gUUVaQyaV7nSqFyOtWdmVOna53qrfRcdS9mi2HfgL9mGrbPIpO1c+eel4nqMvvdHCHRDnxwhVS5y3ZTgf1VGZL4Z/S6xA8eVKQmMiBmDqdT9bJxkAi3RciqVzo1FDPZraO5oh3NryWM/n2Lw35rn6w4iEX33+bAeHFP/S9m9qQhJhcjsxWgC588YNHKxf/flOlr19+mfMni59crklXw8yL73eqHugc/r7kHerRadYtdZj1fDQcXj+r+m6H2luFSsAzo5rwcQ0dZvx4Z65bYfttGIN5e/UNOy6mVXzVrfCiypa6dMDzjv8JdM2sqH2vz/uinlf17c/X1Ahon7aUTaxJdglSEXlrpa13MuBIDnc2ei1nO26OqquGg/tMbrlhh+aoFK4rTgquUDzFpqqie1IqVhdSrWCJW+oHPKraLAZKPz1v3yGUFrr6pnPzV+1WdCEiGhpUow7adJX97dUvVB+mB2dqbEsdnBY/sy7teF4tdm3MlVl4v+vzvqinHc0HfvZB8wntfdziVlyQmMgHVlrTpgisne3F4c5mu20UajSo7K2nl2ZiajEzUZW6nt/GFporhetqQd0jr5lXhhm629Q95fz2ltZbRT8pm/qWW+oReqz1fE/CJYXSGKH1TN+iB3SxGWVKQ5ZsOZVtOmTHbYSk0vuAmcKrSpVfl7Y/r35BUBlzZRZ+GvU5G/PevjK5ljPylCBRkQ/oZAjRpvBTkb04YhlNm0RPO1cPiV8J6j6Nu7e9cINs2hFvAE1Hq3+Rwle102DTD6zXrlaFE+PV7OsjV59Db6k7mAebPygVUkKl0b6m0vAMNQ0FwZWqbL8NM6TQtWTH7XUQ1YW5V8S6otuuJ1GX9njeaDeoyayo/a/PmehqpR83QPZEirogCZEP6GTAMZCT3oXIFr4Nc4OHyWJJB4zTt/ixxXSqNs0aEBXgsCXZzH4/zCnS5ZAlvKA5Qyb6QnRq7JY6jLpPs6Xv3N2vVCsqlE40+d1OkDUgPM9fSO/ro4GJgh0iKNul69ueTu0xcULXUXdrtoJnq9iAEHUp9bw6PWoOJ0ldayKsqDo9lJfpRX0+APVoekM/qn3CQAdjHtqrC7JF5NCwPo/ClyNEFYmEPlAp/9RQz2a2jiaroAavVxauDKfU4JpWnhtGVSBWzTWWhjXssUkOEv/kqmDbHGQF0BgN6n/EMlr30DPnPr8SaB9oCAAowQk5G/36sIevBDoENAQAlCErCttwiGB57QDlWwTidwFYoV0a1H+YE196PN7xK2cAAAAnSY6PyCHLa2Fw0RZQvkUgfheAFdqlQf1P6gcCAAAAugmcDQAAgOLA2QAAACgOnA0AAIDiwNkA0GnefdgvfGW4E8Aih3GIs9Fa7/zeqTAJbHI8Uk4Ckn4m8f6ldK/D5Y/mY/spoXMPTlxa793AIkewr7OhaBG3gzv5+bo474+3L9/0F6I2FHACfWMDyK/9oZp/IqsHW5kp0IKpy6uZia2iU5v/2vzqQfdqMLUmaoVPBRY5hn2dzdXTx8fv77WPfNfxIfP0F7t7GDGr+yRGei5+FGEOUFabRx3XPaNM5B3TYQbpXJws/gzhMK+8RZ+z13WZviJnY6tQaAYdACWqs0MdVSnOPuZoKLCzg7rA5HKg9oLMZ0zMCg5RfYWeYpMyGILa7Kyh8BqL3D57yiKUOShToYqFxUI+5Z0NRYbEpx0bZzW7HfzkgR7NHTmWmkN/d1h//bwCff+sHttDzUQ5UgvYCkU30eJRrK0wtkqt94vpPFjPR/eXPD7niKvUR1FcFRM9RZ3260VfgS6wnt87E5vMQFrBQ0PaWrQl8g46FE2ysZDMesWAP9jNKOfhl8o2i7dr7UpgkeP4BGfDjQ7Bh5rHD/S4obnIgtQm0r6dGmo12CG7mjHF/wAJzPj3+nm6tKpL6nFrozoTrgAOMckeSngb8jX+NBsIX2Y+Z7ZZgRQKvY1096nGQiPhajw2tsHSLpWFyictQtHCGcxnUhR3Nnph2xoINImf6o/krCTSfDTcHq4Hy+qSM9lovHy6Mbsa13jOI7r9Lmj9mMezl/eVZRiGHLwjpXMM3e3RMhx7G+7nkt/croQqPj+2W0Edvfs70hWWbDB6+bZxPinRWGIjM1qJkYwupXcK8OnmfSrmO2nKOhs1ELl+W3iDgwbRLoJrOC0NmFSV/hpbvSG4PVA7DQZfrzOyUa1f9D9G8MsLwL+ApLlM2AW5PiuucxwzLKBilbeRvqZyAeoV42OIM8RZQULu5PXGVFi2Abke3fGnGkvUuXOYaYEdveVYJHpngCnnbMj08DSfAy3ZmE1aOoiu3lh4tWH+4MZez89vmHjuQNVlO1il3km7FfmmhdfMwj6rqrPD/W4teKnD3uZaDbp9MXwB+3YhuSp3PkSt4FEKDSqr9TxhDF9mBo0lZjeFtoW7ljdThkXozhJjPaCd/XZEtuooNxkAtz4c9kNlkIuSzWzxeKwiodN4slhM6WD0BwHaSPJ02mbDuQ1GFWd2wmu5geKZoZQzW4Gwosr7ZJcopQvlJfRRZ7dAVV1YKLS/QKWg80E9utmSatTkkFqLCuuT441FFuPrv96xBJeKWkTemL1yUFqPUU9kto4m6/PRwyG+8t0Oeyqvxn63g5/hXDKWBnIoUO2VMUZ/7xLvcmjROe9FzzmBzqddGtT/U376DADYBf/dTm1JB4BT4XhnY36NWAG//2sD8Ze0jlga6B7wNeDEyZoiKeeBmWwrQPkWgfhdAFZolwb1H+bElx6Pq3+xBgAA4BzI8RE5ZHktDC7aAsq3CMTvArBCuzSoP34gAAAAoDhwNgAAAIoDZwMAAKA4cDYAAACKA2cDjubdxY7yW6ApSFMDpAU9Bs6mJ9Dfzoq+hnqgzvzhLH1zUkckoHASpxq5SHT6VvnSfoDLR8R7cBpk/axNtaWcbKBxhPKq4+Fuhzoc2paxOkAJZLWPKS4CaJSJpaFKfb05dw+DzqddmtRfFbSTzGygcQLl+duy9nO18uvA8qOzLl0lThYb8a1b/wXaVH63I75Y6zdlBt7Zkd57lDpmK/oJX5K2rp5Uo36WOqpS6EzGHA1K8hLy6Uu1F2Q+N9STm61A24j+Fp0oU5gz1e9YlHJm62iwjNYfLr7/pPAcX2/nImitm/EwPl46EQl3vzV/NhRFOgxmqEml9x2Ow/lyqwZ5DAtWD51VCZkVhKvxRIwiI+P4gCh0AUS8zyIMjfbGAYMuvv+mXe+SsA7QNnA2fYIDcq3XE/FehEMNJuKlq1ZmWphP35o/D3Ip46kdnXtS6f2H4wR/s72+CKzloCCOIcloZxGjCG/D9nGnJSPeAw97ddckSKj1yy8I1T3gbPrEanb9PJ0GASD3jZe+R/44ehT5dGN2Han0U8HGhYzH/eW5j4V/LJEZmkaLzyElyduwr0l++3k/S50k+ocoxPWzSSLUfNEkVw6A7gBn0x/MCO7paTn1Y+tUvPQInL5H/hivM3oRXu9EU+mnAYlW9S+VgPQKF6aYl202l/c5vxc04nMk4teV9DU5Ee/Pj/CdjcMnM1gy6yJwNn2BFqkGelWFx8HG3STjpRORcPdb8+/k+fnNLexIUuknAolml2ZoeYwlk29aIrHseTlHTEEdEaMotF1GspiMiPdAwdJZnUCHMUOBrWRmA43jlOff1ojhW7Avxnj+JzeUIxHuPpk/jslDGXx2VcaO9N6jHt1sKYQ8Xkqf6J6ZkmyGUBlCH40axRQWJIkLnIyq+6Ie3WwF2upa7PaEUAqhVZAL7I+S02wdTdZvqIf4qXtLHKE8/eosGe4eZFCg2m81Cv2xTt6LnnMCnU+7NKg/ltEA6ASICw1OGzgbALoAfA04cbKmSJjJtgWUbxGI3wVghXZpUP9hTnzp8bj6F2sAAADOgRwfkUOW18Lgoi2gfItA/C4AK7RLg/rjnQ0AAIDiwNkAAAAoDpwNAACA4sDZAAAAKA6cDQCd5r1w7GmwL7DIYcDZ9AVRwwnU8s8kFN9pX7rX4fJ9XDB8ycZKnvE57TLAIkcAZ9Mn7AcGN9EAXqAo/nOOpoehCD4DbREK+tB8B7h60L0aejTNajYc3g7ugm9ufi6wyDHA2fQR+qi6CLAix93WBVGa6f6ojZpksamgPYv77P3XcOAu0h2+WxXJwvfJzEFhjuY75s+Hvy9jPvpPQR907Bl6TPvMSt/Kg6qjKsXpbo6GVqES+IC6wORy4GQ7Bc2O4+qJItUkQvo42QI9xaaogF5shbOGwmsscvvsaYukCgcCOJs+QjG2XCSUWAD2MASLgxqLDylN4bj0cN19815CAXRcVE8K8GmG9hQN/5avsZrdugj5PqJI/H7iJfQJGyPSPE89mFklvFoiVtB6Prq/5OkQyTCirklGxvG2pQus5/dOYZMZxNlR4eN1VRFrBcp1hHVYe5CkRZKFAwmcTZ+wwW9HJn6Xgru0WAD2eiz2au+3NUgnuZrxNOaECB2U8urJRkTklm5G9on7qeDCWvaCi++/uS9JdvoUVjMkGe1sujSqkTjaQwlvw7E63WkTF5LOZwZxtlf4WF1lIq2AbbC0S2Wh8lGLJAsHEjibPuGDQi3H85GbxScCsF89fdz9VUcoiYblo5dvGxEvl8ZpqS5fz06ebsyuxgzt6UWFcSZ+8UC5P05hkgHh6yX0Du5i3DTEQWI6+DEzQ9Ponoljr1KhMi50HXRjW9la4RN1NdYKaBIuGV0mHYhJTxQOAuBs+gmNhV0D8K+uGdO+qAG83qh9F6yQWqIblG/p1l5n12+LTa2ntJchR0fFhOtl4q1t/H7EAVtCH6HeiYbCNJcJuyDXZ/Fjbi7vc16zmFE1jYiVt5FGqVzAXhek2FbhU3U12gqUczFbGjv5SVkk2RBAAJxNP6G307oBUC8VWyVePdTmDzx+Nnl5lSfua56f39xaQSZUmt5K3k+PWc2816An1Usz8k1LRE1e1Zk/1F2q+91asKzJul2rcbEvhi9gpeQrxFblgEEptK3CO3xdjdpNoW1hR0PCTLstIgsHVbQ/3k5mNtA4QvnqkElMH8JDvNZGSXbRTYRh18lLyi/itFMOsyvPq6Z73AzFvtOZLBZTf0eR+0mV0GXUbZot95wKqZt/JpdKSfbhaFtmt0ddcYEKurBQGH+BSkHng3p0sxWYgaiawu5TPqOjT67VVdZWFqFy+F1xLZknYZFa4aeDeiizdTRZn48eDvGV73aA8i1SQPz3x6+jv3eJdzmrWe6LnnMCTaBdGtQfy2gAdAJaGU0sbAJwAsDZANAF4GvAiZM1RcJMti2gfItA/C4AK7RLg/oPc+JLj8fVv1gDAABwDuT4iByyvBYGF20B5VsE4ncBWKFdGtQf72wAAAAUB84GAABAceBsAAAAFAfOBgAAQHHgbM4R/5FahHrqPDBW14BFDuMQZ6O1zvii7R45wU5kRMHD6zibxH+kFh9HyUP0L0L80r0OjBVDN4R2ehVY5Aj2dTZk6Lww4Pk5QQbvj/cDU8M3C/FN2j1ZIYj6Abw/3r58019dFOLTl+UH+mOMy6n7lnODwFgRVrPrt+m0pV4FFjmGfZ3N1jDgAfk5QQYX33/bGk5fQJdBG+WUx/d40bE4hcmNBVGnzC4T7ZgjQTpf6EAn12+U+DIUoxafvy9jPjFP37LXkU6kYkqvigdSR1WKM5g5Gurq5E8Z65yh7/1P735cml2BqLVCT7FJGQxBJXbWUHiNRW6fPav5GFSxsFgI3tn0j0ogDYrhpD9q7j+Lrmq/jOe0M4i6gOJBIyRHGgrjSGHS6sHMKkGbg3A1nvV8dH/J0yGnv4yMw+G8+LQcY50ZHKvcxWsOoVFALQI5eQcd42Y1u3VKBjFuGm4+IA2cTW9wI7BKGM0mgqg7uDlPfSwPEMIeJBLTmoI4hlSGBJ7p0sySvP7C27Dp3GnbjXVmbHM1Co5WF3gb6e6vnuTcVMTbbKr5mJDnmIGmgbPpDbQuqYdU315keGc13Do+iLpGx7d9ujG7GteKOLb7WaPf0sSimJIVHKxYZmgarT+HlCRvEw1T7EgZ8RzY4WoI1UIoEDTXU7LB6OXbxsUk9+tiIzlzb6z5uGhtmO+kgLPpHzyksssu0d5p3yDqmtdZZc6k8XEHRfTCM0TNLEkfN0AOtVS4PosV21ze5wxyjf4cifh1Ja253VhnB3kAO+4hd7Gejyr6kjt5vTH1lG1Arkd3/HoYRZWY/IFvHQ02H031hSoQaP23U8tG5gqCpSbJzwkiOOWVjq7T58ZiRHXtyuyYZM5i06UNKL/cNnk4vzwgynHFhxc7fUS1l5I7hBx+UygWkSvQmXZ8mfpQcAYVIGxSLew8EFZwhMoZlEImLbQGJwr5aFNuO1V9AWwLmy4vRvnltslDWcSmvaLN2Wti+h9IVkHieqSwJK1nfk6QROlmtgI9tZbcJKSsQf0W+QPp+SyNT5cNSpYjWpGCivR7J49SyGxJ7TVaBq+lE08qFqpK6KOuuEBMXVior79ApaDzQT262fLUhQ2SRD31yU70yWIxpcOsrSxF5fC7wuTBlaIWEYnuykFpPUY9kdk6mqzPR6uJa0420DhQvkUKiE8/c/p7l3iXQ+t0eS96zgk0gXZpUH+8swGgE/Df7SAuNDhZjnc28m+iPPj9HwD7AF8DTpysKZJyHpjJtgKUbxGI3wVghXZpUP9hTnzp8bj6F2sAAADOgRwfkUOW18Lgoi2gfItA/C4AK7RLg/rjBwIAAACKA2cDAACgOHA2AAAAigNnAwAAoDhwNqA89IlE/UFEvwUy8Z8rhnLdABY5jEOcjdZ6559twiTNIzTt09/N0neq9Rd76RP99Wgw3UcK72tz6SrO5SPifQX9Z+TtVH9Y5Aj2dTZk6NvBnfzwXILVgw3bTgHa4W6OR2lPETpY0w+KanPbH3fjgvF8uAAjPeL98dYKv1lMbG3W0W04map4870fIt5HWM2u36bT3f1PEWCRo6CmsotaNvrKaf4nTffLDQRCefEp24Dgi7NCZpkenic+aJv4cq34ZK471X/FNkgO7yt60SA/7fSkMqhnMFsS9wC1B+cd+bBeMos6qlKcAczRoKTgApPFUu0Fmc8N9eRmi9DyOokEIk3oKTYpg8GLrXDWUPhCRW6fPWURfVd628J5T8Bi6jnN1tF8wjsbio8bicUO9oIiNUU/nUVBpVxzGsz1bEfN9mNB1BkuiQ/5ZrYtfzYZhVC4xTAKYu8gvSlMWj10ViVklgxKLFjPR/eX3Am5oI4iKrQ67deLbi50AUS8D9gWrZOjPQdRoRWrVxvEezW7dUpOnu/9LHSP5gCLHEdJZ2M+0Xn97KKug4OhPi4HDhfJ8QcTQdRd3EHB1vy57C6E+4qpGEj2D/YgkbdOFMQxhMZY07tIvXetwUskvA2r6E5LRrw/R3YEhiaFQm8j3f3VkwuxSl7Jx9vcszkkLeKip+MbxClKOhu7Tk8Bcsu8QAUaU9Hd2/eqZ5JB1Gl4lhl0nXpQN+IOcU2LA74z2y5K6Mi8Tzdmt4/otzS2t5GQqg4WJzM0jZbo6ocabpPS3M8lv/0c6Hlm7HA1hOpwKBA0V0myAb3hdMNcfrXPUFBpxx7NIYZPF6sLmO/E+YRlNITlboJgqaWKXS9ejnVFTwVRV0R7s1R+7gONW3FOhbFXFIsPWy6qeJ1RAP+M3rezqIk6PYIbIIcB6RWuz2JxaIiVMcg1ElEbUeaV1smJeH9GkAewdZHcxXo+quhL7uT1xlRJtgG5Ht3x65EO1VfyB76i7tUcciyCzm4LWv/t1LKRuXa8/VJZbIfExvW9E8hHKs8yBm8wece1LIXbDiSnHXuezE07Jj2Z3xNmdmWIElOFcLq8g3rhnUSIz49QvW2hZShCLdERSCEkMnuEOIMKELJVCzsPhBUcoXIGpZBJC63BiUI+2pTbTlVfANvCpsuLUX65bfJQFrFpr2hz9pqY/geSVZC4HiksSevJBjOchOptoLQzW4zU1IoapPmWIy0lc0pTBO2hnj/EZ6Zywuu4vWghlD+4TrT87qEewmyJxzLoJ/bau0eS4oQPTuijrjivokIXFiSJC/RFtMZRj262PHVhgyRRJX2yE32yWEzpMGsrSwlqpjB5cKWoRUSiu3JQWo9RT2S2jibr89Fq4pqTDTQOlG+RAuLTz5z+3iXe5dA6Xd6LnnMCTaBdGtT/M97ZAAB2grjQ4LQ53tmYHzhXwO//ANgH+Bpw4mRNkZTzwEy2FaB8i0D8LgArtEuD+g9z4kuPx9W/WAMAAHAO5PiIHLK81p8/f758+WJ2wCcC5VsE4ncBWKFdGtQfPxAAAABQHDgbAAAAxYGzAQAAUBw4GwAAAMWBswEAAFAcOBsAAADFgbMBAABQHDgbAAAAxYGzAQAAUBw4GwAAAMWBswEAAFAcOBsAAADFgbMBAABQHDgbAAAAxYGzAQAAUBw4GwAAAMWBswEAAFAcOBsAAADFGTYVXxoAAABIMfz4+DCbaRAGvC2gfItA/C4AK7RLY/oPBv8Ha2Mu1DDvHfkAAAAASUVORK5CYII=;" vertex="1" parent="1">
                    <mxGeometry x="1460" y="483" width="548" height="192" as="geometry"/>
                </mxCell>
                <mxCell id="66" style="edgeStyle=none;html=1;" edge="1" parent="1">
                    <mxGeometry relative="1" as="geometry">
                        <mxPoint x="70" y="560" as="targetPoint"/>
                        <mxPoint x="820" y="259.9999999999999" as="sourcePoint"/>
                        <Array as="points">
                            <mxPoint x="820" y="400"/>
                            <mxPoint x="40" y="400"/>
                            <mxPoint x="40" y="560"/>
                        </Array>
                    </mxGeometry>
                </mxCell>
            </root>
        </mxGraphModel>
    </diagram>
</mxfile>